<svg width="262" height="25" viewBox="0 0 262 25" fill="none" xmlns="http://www.w3.org/2000/svg">
<path d="M12.1956 0.471594C17.3369 0.471594 19.9076 2.57293 19.9076 6.77559C19.9076 7.4796 19.8329 8.23693 19.6836 9.0476L18.5636 15.4476C18.0516 18.4129 16.9423 20.6103 15.2356 22.0396C13.5289 23.4689 11.1289 24.1836 8.03559 24.1836C4.94225 24.1836 2.78759 23.4689 1.57159 22.0396C0.739587 21.0583 0.323587 19.7036 0.323587 17.9756C0.323587 17.2076 0.408921 16.3649 0.579587 15.4476L1.69959 9.0476C2.70225 3.33026 6.20092 0.471594 12.1956 0.471594ZM8.89959 19.2236C9.96625 19.2236 10.8196 18.9463 11.4596 18.3916C12.0996 17.8369 12.5476 16.8129 12.8036 15.3196L13.8916 9.1756C13.9556 8.74893 13.9876 8.36493 13.9876 8.02359C13.9876 6.29559 13.1129 5.43159 11.3636 5.43159C9.16625 5.47426 7.85425 6.72226 7.42759 9.1756L6.33959 15.3196C6.25425 15.8529 6.21159 16.4076 6.21159 16.9836C6.21159 18.4769 7.10759 19.2236 8.89959 19.2236ZM43.6573 5.6876H35.7853L32.6173 23.7356H26.8253L29.9933 5.6876H22.0893L22.9853 0.695595H44.5533L43.6573 5.6876ZM56.4666 0.695595C58.8986 0.695595 60.6266 1.22893 61.6506 2.2956C62.4186 3.10626 62.8026 4.13026 62.8026 5.3676C62.8026 5.79426 62.7599 6.24226 62.6746 6.7116L62.2266 9.20759C61.9706 10.5943 61.5226 11.7143 60.8826 12.5676C60.2639 13.4209 59.5706 14.0289 58.8026 14.3916L61.7146 23.7356H55.2506L52.5626 15.1276H50.5786L49.2666 23.7356H43.1226L47.1866 0.695595H56.4666ZM54.4506 5.6876H52.0506L51.2186 11.2556H53.4586C54.5893 11.2556 55.3999 10.9889 55.8906 10.4556C56.3813 9.90093 56.6266 9.1756 56.6266 8.2796C56.6266 6.5516 55.9013 5.6876 54.4506 5.6876ZM76.4143 0.471594C81.5557 0.471594 84.1263 2.57293 84.1263 6.77559C84.1263 7.4796 84.0517 8.23693 83.9023 9.0476L82.7823 15.4476C82.2703 18.4129 81.161 20.6103 79.4543 22.0396C77.7477 23.4689 75.3477 24.1836 72.2543 24.1836C69.161 24.1836 67.0063 23.4689 65.7903 22.0396C64.9583 21.0583 64.5423 19.7036 64.5423 17.9756C64.5423 17.2076 64.6277 16.3649 64.7983 15.4476L65.9183 9.0476C66.921 3.33026 70.4197 0.471594 76.4143 0.471594ZM73.1183 19.2236C74.185 19.2236 75.0383 18.9463 75.6783 18.3916C76.3183 17.8369 76.7663 16.8129 77.0223 15.3196L78.1103 9.1756C78.1743 8.74893 78.2063 8.36493 78.2063 8.02359C78.2063 6.29559 77.3317 5.43159 75.5823 5.43159C73.385 5.47426 72.073 6.72226 71.6463 9.1756L70.5583 15.3196C70.473 15.8529 70.4303 16.4076 70.4303 16.9836C70.4303 18.4769 71.3263 19.2236 73.1183 19.2236ZM91.3283 17.1756C91.3283 18.6476 92.3843 19.3836 94.4963 19.3836C96.6297 19.3836 97.6963 18.7223 97.6963 17.3996C97.6963 16.6956 97.3337 16.1196 96.6083 15.6716C95.883 15.2236 94.9977 14.8503 93.9523 14.5516C92.9283 14.2529 91.8937 13.9116 90.8483 13.5276C89.8243 13.1223 88.9497 12.5036 88.2243 11.6716C87.499 10.8183 87.1363 9.76226 87.1363 8.5036C87.1363 3.14893 90.5817 0.471594 97.4723 0.471594C99.9897 0.471594 101.888 0.951594 103.168 1.91159C104.47 2.85026 105.12 4.16226 105.12 5.8476C105.12 6.46626 105.035 7.06359 104.864 7.6396C104.715 8.19426 104.555 8.58893 104.384 8.8236L104.128 9.20759H98.4643C98.9337 8.71693 99.1683 8.09826 99.1683 7.35159C99.1683 5.96493 98.2617 5.2716 96.4483 5.2716C94.1657 5.2716 93.0243 5.99693 93.0243 7.4476C93.0243 8.17293 93.387 8.74893 94.1123 9.1756C94.8377 9.60226 95.7123 9.94359 96.7363 10.1996C97.7817 10.4343 98.827 10.7329 99.8723 11.0956C100.918 11.4583 101.803 12.0663 102.528 12.9196C103.254 13.7516 103.616 14.8396 103.616 16.1836C103.616 18.8929 102.806 20.9089 101.184 22.2316C99.563 23.5329 97.067 24.1836 93.6963 24.1836C90.3257 24.1836 88.0217 23.5863 86.7843 22.3916C85.867 21.4956 85.4083 20.2583 85.4083 18.6796C85.4083 18.0823 85.4723 17.4316 85.6003 16.7276L85.6963 16.2156H91.4563L91.3923 16.5996C91.3497 16.8129 91.3283 17.0049 91.3283 17.1756ZM123.734 0.695595L127.158 11.7356L134.518 0.695595H140.566L136.502 23.7356H130.71L133.014 10.7436L128.086 18.4876H123.894L121.718 10.7436L119.414 23.7356H113.654L117.718 0.695595H123.734ZM153.508 0.471594C158.649 0.471594 161.22 2.57293 161.22 6.77559C161.22 7.4796 161.145 8.23693 160.996 9.0476L159.876 15.4476C159.364 18.4129 158.255 20.6103 156.548 22.0396C154.841 23.4689 152.441 24.1836 149.348 24.1836C146.255 24.1836 144.1 23.4689 142.884 22.0396C142.052 21.0583 141.636 19.7036 141.636 17.9756C141.636 17.2076 141.721 16.3649 141.892 15.4476L143.012 9.0476C144.015 3.33026 147.513 0.471594 153.508 0.471594ZM150.212 19.2236C151.279 19.2236 152.132 18.9463 152.772 18.3916C153.412 17.8369 153.86 16.8129 154.116 15.3196L155.204 9.1756C155.268 8.74893 155.3 8.36493 155.3 8.02359C155.3 6.29559 154.425 5.43159 152.676 5.43159C150.479 5.47426 149.167 6.72226 148.74 9.1756L147.652 15.3196C147.567 15.8529 147.524 16.4076 147.524 16.9836C147.524 18.4769 148.42 19.2236 150.212 19.2236ZM175.334 0.695595C178.129 0.695595 180.123 1.39959 181.318 2.80759C182.193 3.87426 182.63 5.20759 182.63 6.80759C182.63 7.38359 182.577 7.99159 182.47 8.63159L181.222 15.7676C180.795 18.1783 179.75 20.1089 178.086 21.5596C176.422 23.0103 174.267 23.7356 171.622 23.7356H162.31L166.374 0.695595H175.334ZM173.318 5.6876H171.238L168.966 18.7436H172.006C173.009 18.7436 173.787 18.4769 174.342 17.9436C174.918 17.3889 175.313 16.4929 175.526 15.2556L176.454 10.0076C176.539 9.53826 176.582 9.11159 176.582 8.7276C176.582 6.70093 175.494 5.6876 173.318 5.6876ZM199.78 23.7356H183.716L187.78 0.695595H203.844L202.948 5.6876H192.644L191.908 10.0076H200.42L199.524 14.9996H191.012L190.372 18.7436H200.676L199.78 23.7356ZM218.058 23.7356H203.466L207.53 0.695595H213.29L210.122 18.7436H218.954L218.058 23.7356ZM233.071 0.471594C238.212 0.471594 240.783 2.57293 240.783 6.77559C240.783 7.4796 240.708 8.23693 240.559 9.0476L239.439 15.4476C238.927 18.4129 237.817 20.6103 236.111 22.0396C234.404 23.4689 232.004 24.1836 228.911 24.1836C225.817 24.1836 223.663 23.4689 222.447 22.0396C221.615 21.0583 221.199 19.7036 221.199 17.9756C221.199 17.2076 221.284 16.3649 221.455 15.4476L222.575 9.0476C223.577 3.33026 227.076 0.471594 233.071 0.471594ZM229.775 19.2236C230.841 19.2236 231.695 18.9463 232.335 18.3916C232.975 17.8369 233.423 16.8129 233.679 15.3196L234.767 9.1756C234.831 8.74893 234.863 8.36493 234.863 8.02359C234.863 6.29559 233.988 5.43159 232.239 5.43159C230.041 5.47426 228.729 6.72226 228.303 9.1756L227.215 15.3196C227.129 15.8529 227.087 16.4076 227.087 16.9836C227.087 18.4769 227.983 19.2236 229.775 19.2236ZM247.985 17.1756C247.985 18.6476 249.041 19.3836 251.153 19.3836C253.286 19.3836 254.353 18.7223 254.353 17.3996C254.353 16.6956 253.99 16.1196 253.265 15.6716C252.539 15.2236 251.654 14.8503 250.609 14.5516C249.585 14.2529 248.55 13.9116 247.505 13.5276C246.481 13.1223 245.606 12.5036 244.881 11.6716C244.155 10.8183 243.793 9.76226 243.793 8.5036C243.793 3.14893 247.238 0.471594 254.129 0.471594C256.646 0.471594 258.545 0.951594 259.825 1.91159C261.126 2.85026 261.777 4.16226 261.777 5.8476C261.777 6.46626 261.691 7.06359 261.521 7.6396C261.371 8.19426 261.211 8.58893 261.041 8.8236L260.785 9.20759H255.121C255.59 8.71693 255.825 8.09826 255.825 7.35159C255.825 5.96493 254.918 5.2716 253.105 5.2716C250.822 5.2716 249.681 5.99693 249.681 7.4476C249.681 8.17293 250.043 8.74893 250.769 9.1756C251.494 9.60226 252.369 9.94359 253.393 10.1996C254.438 10.4343 255.483 10.7329 256.529 11.0956C257.574 11.4583 258.459 12.0663 259.185 12.9196C259.91 13.7516 260.273 14.8396 260.273 16.1836C260.273 18.8929 259.462 20.9089 257.841 22.2316C256.219 23.5329 253.723 24.1836 250.353 24.1836C246.982 24.1836 244.678 23.5863 243.441 22.3916C242.523 21.4956 242.065 20.2583 242.065 18.6796C242.065 18.0823 242.129 17.4316 242.257 16.7276L242.353 16.2156H248.113L248.049 16.5996C248.006 16.8129 247.985 17.0049 247.985 17.1756Z" fill="white"/>
</svg>
