<svg width="307" height="46" viewBox="0 0 307 46" fill="none" xmlns="http://www.w3.org/2000/svg">
<path d="M2.61928 19.5275H0.772686L6.1136 4.98207H7.93178L13.2727 19.5275H11.4261L7.0795 7.28321H6.96587L2.61928 19.5275ZM3.30109 13.8457H10.7443V15.4082H3.30109V13.8457ZM19.3718 8.61844V10.0389H13.7184V8.61844H19.3718ZM15.3661 6.0048H17.0422V16.4025C17.0422 16.876 17.1109 17.2311 17.2482 17.4679C17.3902 17.6999 17.5702 17.8561 17.788 17.9366C18.0105 18.0124 18.2449 18.0503 18.4911 18.0503C18.6757 18.0503 18.8273 18.0408 18.9456 18.0218C19.064 17.9982 19.1587 17.9792 19.2297 17.965L19.5706 19.4707C19.457 19.5133 19.2984 19.5559 19.0948 19.5985C18.8912 19.6459 18.6331 19.6696 18.3206 19.6696C17.8471 19.6696 17.3831 19.5678 16.9286 19.3642C16.4788 19.1606 16.1047 18.8504 15.8064 18.4338C15.5129 18.0171 15.3661 17.4915 15.3661 16.8571V6.0048ZM26.3497 19.7548C25.2986 19.7548 24.3919 19.5228 23.6296 19.0588C22.872 18.59 22.2872 17.9366 21.8753 17.0985C21.4681 16.2557 21.2645 15.2756 21.2645 14.1582C21.2645 13.0408 21.4681 12.0559 21.8753 11.2037C22.2872 10.3467 22.8602 9.67904 23.5941 9.20082C24.3327 8.71787 25.1944 8.47639 26.1793 8.47639C26.7475 8.47639 27.3086 8.57109 27.8625 8.76048C28.4165 8.94987 28.9208 9.25764 29.3753 9.68378C29.8299 10.1052 30.1921 10.6639 30.462 11.3599C30.7318 12.0559 30.8668 12.9129 30.8668 13.9309V14.6412H22.4577V13.1923H29.1622C29.1622 12.5768 29.0391 12.0275 28.7929 11.5446C28.5515 11.0616 28.2058 10.6805 27.756 10.4011C27.3109 10.1217 26.7854 9.98207 26.1793 9.98207C25.5117 9.98207 24.934 10.1478 24.4463 10.4792C23.9634 10.8059 23.5917 11.2321 23.3313 11.7576C23.0709 12.2832 22.9407 12.8467 22.9407 13.448V14.4139C22.9407 15.2378 23.0827 15.9361 23.3668 16.5091C23.6556 17.0772 24.0557 17.5105 24.5671 17.8088C25.0784 18.1023 25.6727 18.2491 26.3497 18.2491C26.7901 18.2491 27.1878 18.1876 27.5429 18.0645C27.9028 17.9366 28.2129 17.7472 28.4733 17.4963C28.7337 17.2406 28.935 16.9234 29.077 16.5446L30.6963 16.9991C30.5259 17.5484 30.2394 18.0313 29.837 18.448C29.4345 18.8599 28.9373 19.1819 28.3455 19.4139C27.7536 19.6412 27.0884 19.7548 26.3497 19.7548ZM35.0926 12.965V19.5275H33.4165V8.61844H35.0358V10.323H35.1779C35.4336 9.769 35.8218 9.32393 36.3426 8.98775C36.8635 8.64685 37.5358 8.47639 38.3597 8.47639C39.0983 8.47639 39.7446 8.62791 40.2986 8.93094C40.8526 9.22923 41.2835 9.68378 41.5912 10.2946C41.899 10.9006 42.0529 11.6677 42.0529 12.5957V19.5275H40.3767V12.7093C40.3767 11.8523 40.1542 11.1847 39.7091 10.7065C39.264 10.2235 38.6532 9.98207 37.8767 9.98207C37.3417 9.98207 36.8635 10.0981 36.4421 10.3301C36.0254 10.5621 35.6963 10.9006 35.4549 11.3457C35.2134 11.7908 35.0926 12.3306 35.0926 12.965ZM49.5475 19.7548C48.5248 19.7548 47.6441 19.5133 46.9055 19.0304C46.1669 18.5474 45.5987 17.8822 45.201 17.0346C44.8032 16.1871 44.6044 15.2188 44.6044 14.1298C44.6044 13.0218 44.808 12.0441 45.2152 11.1966C45.6271 10.3443 46.2 9.67904 46.9339 9.20082C47.6725 8.71787 48.5343 8.47639 49.5191 8.47639C50.2862 8.47639 50.9775 8.61844 51.593 8.90253C52.2085 9.18662 52.7128 9.58434 53.1058 10.0957C53.4988 10.6071 53.7426 11.2037 53.8373 11.8855H52.1612C52.0333 11.3883 51.7492 10.948 51.3089 10.5645C50.8733 10.1762 50.2862 9.98207 49.5475 9.98207C48.8941 9.98207 48.3212 10.1525 47.8288 10.4934C47.3411 10.8296 46.9599 11.3055 46.6853 11.921C46.4154 12.5318 46.2805 13.2491 46.2805 14.073C46.2805 14.9158 46.4131 15.6497 46.6782 16.2747C46.9481 16.8997 47.3269 17.385 47.8146 17.7307C48.307 18.0763 48.8847 18.2491 49.5475 18.2491C49.9831 18.2491 50.3785 18.1734 50.7336 18.0218C51.0887 17.8703 51.3894 17.6525 51.6356 17.3684C51.8818 17.0843 52.057 16.7434 52.1612 16.3457H53.8373C53.7426 16.9896 53.5082 17.5697 53.1342 18.0858C52.7649 18.5971 52.2748 19.0043 51.664 19.3074C51.058 19.6057 50.3525 19.7548 49.5475 19.7548ZM56.2876 19.5275V8.61844H57.9637V19.5275H56.2876ZM57.1399 6.80025C56.8132 6.80025 56.5314 6.68899 56.2947 6.46645C56.0627 6.24391 55.9467 5.97639 55.9467 5.66389C55.9467 5.35139 56.0627 5.08387 56.2947 4.86133C56.5314 4.6388 56.8132 4.52753 57.1399 4.52753C57.4666 4.52753 57.7459 4.6388 57.9779 4.86133C58.2147 5.08387 58.3331 5.35139 58.3331 5.66389C58.3331 5.97639 58.2147 6.24391 57.9779 6.46645C57.7459 6.68899 57.4666 6.80025 57.1399 6.80025ZM65.4655 19.7548C64.4807 19.7548 63.6166 19.5204 62.8732 19.0517C62.1345 18.5829 61.5569 17.9271 61.1402 17.0843C60.7283 16.2415 60.5223 15.2567 60.5223 14.1298C60.5223 12.9934 60.7283 12.0015 61.1402 11.1539C61.5569 10.3064 62.1345 9.64827 62.8732 9.17952C63.6166 8.71077 64.4807 8.47639 65.4655 8.47639C66.4504 8.47639 67.3121 8.71077 68.0507 9.17952C68.7941 9.64827 69.3718 10.3064 69.7837 11.1539C70.2004 12.0015 70.4087 12.9934 70.4087 14.1298C70.4087 15.2567 70.2004 16.2415 69.7837 17.0843C69.3718 17.9271 68.7941 18.5829 68.0507 19.0517C67.3121 19.5204 66.4504 19.7548 65.4655 19.7548ZM65.4655 18.2491C66.2136 18.2491 66.8291 18.0574 67.3121 17.6738C67.7951 17.2903 68.1525 16.786 68.3845 16.161C68.6166 15.536 68.7326 14.859 68.7326 14.1298C68.7326 13.4006 68.6166 12.7212 68.3845 12.0914C68.1525 11.4617 67.7951 10.9527 67.3121 10.5645C66.8291 10.1762 66.2136 9.98207 65.4655 9.98207C64.7174 9.98207 64.1019 10.1762 63.6189 10.5645C63.136 10.9527 62.7785 11.4617 62.5465 12.0914C62.3145 12.7212 62.1985 13.4006 62.1985 14.1298C62.1985 14.859 62.3145 15.536 62.5465 16.161C62.7785 16.786 63.136 17.2903 63.6189 17.6738C64.1019 18.0574 64.7174 18.2491 65.4655 18.2491ZM64.6985 7.14116L66.4314 3.84571H68.3916L66.1757 7.14116H64.6985ZM74.6434 12.965V19.5275H72.9673V8.61844H74.5866V10.323H74.7287C74.9843 9.769 75.3726 9.32393 75.8934 8.98775C76.4143 8.64685 77.0866 8.47639 77.9105 8.47639C78.6491 8.47639 79.2954 8.62791 79.8494 8.93094C80.4034 9.22923 80.8342 9.68378 81.142 10.2946C81.4498 10.9006 81.6037 11.6677 81.6037 12.5957V19.5275H79.9275V12.7093C79.9275 11.8523 79.705 11.1847 79.2599 10.7065C78.8148 10.2235 78.204 9.98207 77.4275 9.98207C76.8925 9.98207 76.4143 10.0981 75.9929 10.3301C75.5762 10.5621 75.2471 10.9006 75.0056 11.3457C74.7642 11.7908 74.6434 12.3306 74.6434 12.965ZM93.5017 19.7832C92.8104 19.7832 92.1831 19.653 91.6196 19.3926C91.0562 19.1274 90.6087 18.7463 90.2773 18.2491C89.9459 17.7472 89.7801 17.1412 89.7801 16.4309C89.7801 15.8059 89.9032 15.2993 90.1495 14.911C90.3957 14.5181 90.7247 14.2103 91.1367 13.9878C91.5486 13.7652 92.0032 13.5995 92.5003 13.4906C93.0022 13.377 93.5065 13.287 94.0131 13.2207C94.676 13.1355 95.2134 13.0716 95.6253 13.0289C96.042 12.9816 96.345 12.9035 96.5344 12.7946C96.7285 12.6857 96.8256 12.4963 96.8256 12.2264V12.1696C96.8256 11.4688 96.6338 10.9243 96.2503 10.536C95.8715 10.1478 95.2962 9.95366 94.5245 9.95366C93.7243 9.95366 93.0969 10.1289 92.6424 10.4792C92.1878 10.8296 91.8682 11.2037 91.6836 11.6014L90.0926 11.0332C90.3767 10.3703 90.7555 9.85423 91.229 9.48491C91.7072 9.11086 92.2281 8.85044 92.7915 8.70366C93.3597 8.55215 93.9184 8.47639 94.4676 8.47639C94.818 8.47639 95.2205 8.519 95.675 8.60423C96.1343 8.68472 96.577 8.85281 97.0032 9.10849C97.434 9.36417 97.7915 9.75006 98.0756 10.2662C98.3597 10.7823 98.5017 11.4735 98.5017 12.34V19.5275H96.8256V18.0503H96.7404C96.6267 18.287 96.4373 18.5403 96.1722 18.8102C95.907 19.0801 95.5543 19.3097 95.114 19.4991C94.6736 19.6885 94.1362 19.7832 93.5017 19.7832ZM93.7574 18.2775C94.4203 18.2775 94.979 18.1473 95.4336 17.8869C95.8928 17.6265 96.2385 17.2903 96.4705 16.8784C96.7072 16.4664 96.8256 16.0332 96.8256 15.5787V14.0446C96.7546 14.1298 96.5983 14.2079 96.3568 14.2789C96.1201 14.3452 95.8455 14.4044 95.533 14.4565C95.2252 14.5039 94.9246 14.5465 94.631 14.5843C94.3422 14.6175 94.1078 14.6459 93.9279 14.6696C93.4923 14.7264 93.0851 14.8187 92.7063 14.9466C92.3322 15.0697 92.0292 15.2567 91.7972 15.5076C91.5699 15.7539 91.4563 16.09 91.4563 16.5162C91.4563 17.0985 91.6717 17.5389 92.1026 17.8372C92.5382 18.1307 93.0898 18.2775 93.7574 18.2775ZM103.237 4.98207V19.5275H101.561V4.98207H103.237ZM116.364 19.7548C115.341 19.7548 114.461 19.5133 113.722 19.0304C112.983 18.5474 112.415 17.8822 112.017 17.0346C111.62 16.1871 111.421 15.2188 111.421 14.1298C111.421 13.0218 111.624 12.0441 112.032 11.1966C112.443 10.3443 113.016 9.67904 113.75 9.20082C114.489 8.71787 115.351 8.47639 116.336 8.47639C117.103 8.47639 117.794 8.61844 118.409 8.90253C119.025 9.18662 119.529 9.58434 119.922 10.0957C120.315 10.6071 120.559 11.2037 120.654 11.8855H118.978C118.85 11.3883 118.566 10.948 118.125 10.5645C117.69 10.1762 117.103 9.98207 116.364 9.98207C115.711 9.98207 115.138 10.1525 114.645 10.4934C114.158 10.8296 113.776 11.3055 113.502 11.921C113.232 12.5318 113.097 13.2491 113.097 14.073C113.097 14.9158 113.229 15.6497 113.495 16.2747C113.765 16.8997 114.143 17.385 114.631 17.7307C115.123 18.0763 115.701 18.2491 116.364 18.2491C116.8 18.2491 117.195 18.1734 117.55 18.0218C117.905 17.8703 118.206 17.6525 118.452 17.3684C118.698 17.0843 118.873 16.7434 118.978 16.3457H120.654C120.559 16.9896 120.325 17.5697 119.951 18.0858C119.581 18.5971 119.091 19.0043 118.48 19.3074C117.874 19.6057 117.169 19.7548 116.364 19.7548ZM124.78 4.98207V19.5275H123.104V4.98207H124.78ZM127.85 19.5275V8.61844H129.526V19.5275H127.85ZM128.702 6.80025C128.376 6.80025 128.094 6.68899 127.857 6.46645C127.625 6.24391 127.509 5.97639 127.509 5.66389C127.509 5.35139 127.625 5.08387 127.857 4.86133C128.094 4.6388 128.376 4.52753 128.702 4.52753C129.029 4.52753 129.308 4.6388 129.54 4.86133C129.777 5.08387 129.896 5.35139 129.896 5.66389C129.896 5.97639 129.777 6.24391 129.54 6.46645C129.308 6.68899 129.029 6.80025 128.702 6.80025ZM137.17 19.7548C136.119 19.7548 135.212 19.5228 134.45 19.0588C133.692 18.59 133.108 17.9366 132.696 17.0985C132.288 16.2557 132.085 15.2756 132.085 14.1582C132.085 13.0408 132.288 12.0559 132.696 11.2037C133.108 10.3467 133.68 9.67904 134.414 9.20082C135.153 8.71787 136.015 8.47639 137 8.47639C137.568 8.47639 138.129 8.57109 138.683 8.76048C139.237 8.94987 139.741 9.25764 140.196 9.68378C140.65 10.1052 141.012 10.6639 141.282 11.3599C141.552 12.0559 141.687 12.9129 141.687 13.9309V14.6412H133.278V13.1923H139.983C139.983 12.5768 139.859 12.0275 139.613 11.5446C139.372 11.0616 139.026 10.6805 138.576 10.4011C138.131 10.1217 137.606 9.98207 137 9.98207C136.332 9.98207 135.754 10.1478 135.267 10.4792C134.784 10.8059 134.412 11.2321 134.152 11.7576C133.891 12.2832 133.761 12.8467 133.761 13.448V14.4139C133.761 15.2378 133.903 15.9361 134.187 16.5091C134.476 17.0772 134.876 17.5105 135.387 17.8088C135.899 18.1023 136.493 18.2491 137.17 18.2491C137.61 18.2491 138.008 18.1876 138.363 18.0645C138.723 17.9366 139.033 17.7472 139.294 17.4963C139.554 17.2406 139.755 16.9234 139.897 16.5446L141.517 16.9991C141.346 17.5484 141.06 18.0313 140.657 18.448C140.255 18.8599 139.758 19.1819 139.166 19.4139C138.574 19.6412 137.909 19.7548 137.17 19.7548ZM145.913 12.965V19.5275H144.237V8.61844H145.856V10.323H145.998C146.254 9.769 146.642 9.32393 147.163 8.98775C147.684 8.64685 148.356 8.47639 149.18 8.47639C149.919 8.47639 150.565 8.62791 151.119 8.93094C151.673 9.22923 152.104 9.68378 152.412 10.2946C152.719 10.9006 152.873 11.6677 152.873 12.5957V19.5275H151.197V12.7093C151.197 11.8523 150.975 11.1847 150.529 10.7065C150.084 10.2235 149.474 9.98207 148.697 9.98207C148.162 9.98207 147.684 10.0981 147.262 10.3301C146.846 10.5621 146.517 10.9006 146.275 11.3457C146.034 11.7908 145.913 12.3306 145.913 12.965ZM160.68 8.61844V10.0389H155.027V8.61844H160.68ZM156.675 6.0048H158.351V16.4025C158.351 16.876 158.419 17.2311 158.557 17.4679C158.699 17.6999 158.879 17.8561 159.097 17.9366C159.319 18.0124 159.553 18.0503 159.8 18.0503C159.984 18.0503 160.136 18.0408 160.254 18.0218C160.373 17.9982 160.467 17.9792 160.538 17.965L160.879 19.4707C160.766 19.5133 160.607 19.5559 160.403 19.5985C160.2 19.6459 159.942 19.6696 159.629 19.6696C159.156 19.6696 158.692 19.5678 158.237 19.3642C157.787 19.1606 157.413 18.8504 157.115 18.4338C156.821 18.0171 156.675 17.4915 156.675 16.8571V6.0048ZM167.658 19.7548C166.607 19.7548 165.7 19.5228 164.938 19.0588C164.181 18.59 163.596 17.9366 163.184 17.0985C162.777 16.2557 162.573 15.2756 162.573 14.1582C162.573 13.0408 162.777 12.0559 163.184 11.2037C163.596 10.3467 164.169 9.67904 164.903 9.20082C165.641 8.71787 166.503 8.47639 167.488 8.47639C168.056 8.47639 168.617 8.57109 169.171 8.76048C169.725 8.94987 170.229 9.25764 170.684 9.68378C171.138 10.1052 171.501 10.6639 171.771 11.3599C172.04 12.0559 172.175 12.9129 172.175 13.9309V14.6412H163.766V13.1923H170.471C170.471 12.5768 170.348 12.0275 170.102 11.5446C169.86 11.0616 169.514 10.6805 169.065 10.4011C168.62 10.1217 168.094 9.98207 167.488 9.98207C166.82 9.98207 166.243 10.1478 165.755 10.4792C165.272 10.8059 164.9 11.2321 164.64 11.7576C164.379 12.2832 164.249 12.8467 164.249 13.448V14.4139C164.249 15.2378 164.391 15.9361 164.675 16.5091C164.964 17.0772 165.364 17.5105 165.876 17.8088C166.387 18.1023 166.981 18.2491 167.658 18.2491C168.099 18.2491 168.496 18.1876 168.852 18.0645C169.211 17.9366 169.522 17.7472 169.782 17.4963C170.042 17.2406 170.244 16.9234 170.386 16.5446L172.005 16.9991C171.834 17.5484 171.548 18.0313 171.146 18.448C170.743 18.8599 170.246 19.1819 169.654 19.4139C169.062 19.6412 168.397 19.7548 167.658 19.7548ZM182.026 4.98207V19.5275H180.35V4.98207H182.026ZM188.306 19.7832C187.615 19.7832 186.988 19.653 186.424 19.3926C185.861 19.1274 185.413 18.7463 185.082 18.2491C184.751 17.7472 184.585 17.1412 184.585 16.4309C184.585 15.8059 184.708 15.2993 184.954 14.911C185.2 14.5181 185.529 14.2103 185.941 13.9878C186.353 13.7652 186.808 13.5995 187.305 13.4906C187.807 13.377 188.311 13.287 188.818 13.2207C189.481 13.1355 190.018 13.0716 190.43 13.0289C190.847 12.9816 191.15 12.9035 191.339 12.7946C191.533 12.6857 191.63 12.4963 191.63 12.2264V12.1696C191.63 11.4688 191.439 10.9243 191.055 10.536C190.676 10.1478 190.101 9.95366 189.329 9.95366C188.529 9.95366 187.902 10.1289 187.447 10.4792C186.993 10.8296 186.673 11.2037 186.488 11.6014L184.897 11.0332C185.181 10.3703 185.56 9.85423 186.034 9.48491C186.512 9.11086 187.033 8.85044 187.596 8.70366C188.164 8.55215 188.723 8.47639 189.272 8.47639C189.623 8.47639 190.025 8.519 190.48 8.60423C190.939 8.68472 191.382 8.85281 191.808 9.10849C192.239 9.36417 192.596 9.75006 192.88 10.2662C193.164 10.7823 193.306 11.4735 193.306 12.34V19.5275H191.63V18.0503H191.545C191.431 18.287 191.242 18.5403 190.977 18.8102C190.712 19.0801 190.359 19.3097 189.919 19.4991C189.478 19.6885 188.941 19.7832 188.306 19.7832ZM188.562 18.2775C189.225 18.2775 189.784 18.1473 190.238 17.8869C190.698 17.6265 191.043 17.2903 191.275 16.8784C191.512 16.4664 191.63 16.0332 191.63 15.5787V14.0446C191.559 14.1298 191.403 14.2079 191.162 14.2789C190.925 14.3452 190.65 14.4044 190.338 14.4565C190.03 14.5039 189.729 14.5465 189.436 14.5843C189.147 14.6175 188.912 14.6459 188.733 14.6696C188.297 14.7264 187.89 14.8187 187.511 14.9466C187.137 15.0697 186.834 15.2567 186.602 15.5076C186.375 15.7539 186.261 16.09 186.261 16.5162C186.261 17.0985 186.476 17.5389 186.907 17.8372C187.343 18.1307 187.894 18.2775 188.562 18.2775ZM204.093 11.0616L202.587 11.4878C202.493 11.2368 202.353 10.993 202.168 10.7562C201.988 10.5147 201.742 10.3159 201.43 10.1596C201.117 10.0034 200.717 9.92525 200.229 9.92525C199.562 9.92525 199.005 10.0791 198.56 10.3869C198.12 10.6899 197.9 11.0758 197.9 11.5446C197.9 11.9612 198.051 12.2903 198.354 12.5318C198.657 12.7733 199.131 12.9745 199.775 13.1355L201.394 13.5332C202.37 13.77 203.096 14.1322 203.575 14.6199C204.053 15.1028 204.292 15.7254 204.292 16.4878C204.292 17.1128 204.112 17.6715 203.752 18.1639C203.397 18.6563 202.9 19.0446 202.261 19.3287C201.621 19.6128 200.878 19.7548 200.03 19.7548C198.918 19.7548 197.997 19.5133 197.268 19.0304C196.539 18.5474 196.077 17.8419 195.883 16.9139L197.474 16.5162C197.625 17.1033 197.912 17.5436 198.333 17.8372C198.759 18.1307 199.316 18.2775 200.002 18.2775C200.783 18.2775 201.404 18.1118 201.863 17.7804C202.327 17.4442 202.559 17.0417 202.559 16.573C202.559 16.1942 202.426 15.877 202.161 15.6213C201.896 15.3609 201.489 15.1667 200.94 15.0389L199.121 14.6128C198.122 14.376 197.388 14.0091 196.92 13.5119C196.456 13.01 196.224 12.3826 196.224 11.6298C196.224 11.0143 196.397 10.4698 196.742 9.99628C197.093 9.52279 197.568 9.15111 198.17 8.88122C198.776 8.61133 199.462 8.47639 200.229 8.47639C201.309 8.47639 202.156 8.71313 202.772 9.18662C203.392 9.6601 203.833 10.2851 204.093 11.0616ZM212.412 19.5275V18.2491L217.213 12.9934C217.776 12.3779 218.24 11.8429 218.605 11.3883C218.969 10.929 219.239 10.4982 219.414 10.0957C219.594 9.68851 219.684 9.26238 219.684 8.8173C219.684 8.30594 219.561 7.86323 219.315 7.48917C219.073 7.11512 218.742 6.8263 218.321 6.6227C217.899 6.4191 217.426 6.3173 216.9 6.3173C216.341 6.3173 215.854 6.4333 215.437 6.66531C215.025 6.89258 214.706 7.21219 214.478 7.62412C214.256 8.03605 214.144 8.519 214.144 9.07298H212.468C212.468 8.22071 212.665 7.4726 213.058 6.82866C213.451 6.18472 213.986 5.68283 214.663 5.32298C215.345 4.96313 216.109 4.78321 216.957 4.78321C217.809 4.78321 218.564 4.96313 219.223 5.32298C219.881 5.68283 220.397 6.16815 220.771 6.77895C221.145 7.38974 221.332 8.06919 221.332 8.8173C221.332 9.35234 221.235 9.87554 221.041 10.3869C220.851 10.8935 220.52 11.4593 220.046 12.0843C219.578 12.7046 218.927 13.4622 218.093 14.3571L214.826 17.8514V17.965H221.588V19.5275H212.412ZM223.868 16.5446V15.0957L230.26 4.98207H231.311V7.22639H230.6L225.771 14.8684V14.9821H234.379V16.5446H223.868ZM230.714 19.5275V16.1042V15.4295V4.98207H232.39V19.5275H230.714ZM244.37 12.965V19.5275H242.694V4.98207H244.37V10.323H244.512C244.768 9.75953 245.151 9.31209 245.663 8.98065C246.179 8.64448 246.865 8.47639 247.722 8.47639C248.466 8.47639 249.117 8.62554 249.675 8.92383C250.234 9.21739 250.667 9.66957 250.975 10.2804C251.288 10.8864 251.444 11.6582 251.444 12.5957V19.5275H249.768V12.7093C249.768 11.8429 249.543 11.1729 249.093 10.6994C248.648 10.2212 248.03 9.98207 247.239 9.98207C246.69 9.98207 246.198 10.0981 245.762 10.3301C245.331 10.5621 244.99 10.9006 244.739 11.3457C244.493 11.7908 244.37 12.3306 244.37 12.965ZM258.942 19.7548C257.957 19.7548 257.093 19.5204 256.35 19.0517C255.611 18.5829 255.033 17.9271 254.617 17.0843C254.205 16.2415 253.999 15.2567 253.999 14.1298C253.999 12.9934 254.205 12.0015 254.617 11.1539C255.033 10.3064 255.611 9.64827 256.35 9.17952C257.093 8.71077 257.957 8.47639 258.942 8.47639C259.927 8.47639 260.789 8.71077 261.527 9.17952C262.271 9.64827 262.848 10.3064 263.26 11.1539C263.677 12.0015 263.885 12.9934 263.885 14.1298C263.885 15.2567 263.677 16.2415 263.26 17.0843C262.848 17.9271 262.271 18.5829 261.527 19.0517C260.789 19.5204 259.927 19.7548 258.942 19.7548ZM258.942 18.2491C259.69 18.2491 260.306 18.0574 260.789 17.6738C261.272 17.2903 261.629 16.786 261.861 16.161C262.093 15.536 262.209 14.859 262.209 14.1298C262.209 13.4006 262.093 12.7212 261.861 12.0914C261.629 11.4617 261.272 10.9527 260.789 10.5645C260.306 10.1762 259.69 9.98207 258.942 9.98207C258.194 9.98207 257.578 10.1762 257.095 10.5645C256.613 10.9527 256.255 11.4617 256.023 12.0914C255.791 12.7212 255.675 13.4006 255.675 14.1298C255.675 14.859 255.791 15.536 256.023 16.161C256.255 16.786 256.613 17.2903 257.095 17.6738C257.578 18.0574 258.194 18.2491 258.942 18.2491ZM266.444 19.5275V8.61844H268.063V10.2662H268.177C268.376 9.72639 268.736 9.28842 269.256 8.95224C269.777 8.61607 270.364 8.44798 271.018 8.44798C271.141 8.44798 271.295 8.45035 271.479 8.45508C271.664 8.45982 271.804 8.46692 271.898 8.47639V10.1809C271.842 10.1667 271.711 10.1454 271.508 10.117C271.309 10.0839 271.098 10.0673 270.876 10.0673C270.345 10.0673 269.872 10.1786 269.455 10.4011C269.043 10.6189 268.717 10.9219 268.475 11.3102C268.238 11.6937 268.12 12.1317 268.12 12.6241V19.5275H266.444ZM277.095 19.7832C276.404 19.7832 275.777 19.653 275.213 19.3926C274.65 19.1274 274.202 18.7463 273.871 18.2491C273.54 17.7472 273.374 17.1412 273.374 16.4309C273.374 15.8059 273.497 15.2993 273.743 14.911C273.989 14.5181 274.318 14.2103 274.73 13.9878C275.142 13.7652 275.597 13.5995 276.094 13.4906C276.596 13.377 277.1 13.287 277.607 13.2207C278.27 13.1355 278.807 13.0716 279.219 13.0289C279.636 12.9816 279.939 12.9035 280.128 12.7946C280.322 12.6857 280.419 12.4963 280.419 12.2264V12.1696C280.419 11.4688 280.228 10.9243 279.844 10.536C279.465 10.1478 278.89 9.95366 278.118 9.95366C277.318 9.95366 276.691 10.1289 276.236 10.4792C275.782 10.8296 275.462 11.2037 275.277 11.6014L273.686 11.0332C273.97 10.3703 274.349 9.85423 274.823 9.48491C275.301 9.11086 275.822 8.85044 276.385 8.70366C276.953 8.55215 277.512 8.47639 278.061 8.47639C278.412 8.47639 278.814 8.519 279.269 8.60423C279.728 8.68472 280.171 8.85281 280.597 9.10849C281.028 9.36417 281.385 9.75006 281.669 10.2662C281.953 10.7823 282.095 11.4735 282.095 12.34V19.5275H280.419V18.0503H280.334C280.22 18.287 280.031 18.5403 279.766 18.8102C279.501 19.0801 279.148 19.3097 278.708 19.4991C278.267 19.6885 277.73 19.7832 277.095 19.7832ZM277.351 18.2775C278.014 18.2775 278.573 18.1473 279.027 17.8869C279.487 17.6265 279.832 17.2903 280.064 16.8784C280.301 16.4664 280.419 16.0332 280.419 15.5787V14.0446C280.348 14.1298 280.192 14.2079 279.951 14.2789C279.714 14.3452 279.439 14.4044 279.127 14.4565C278.819 14.5039 278.518 14.5465 278.225 14.5843C277.936 14.6175 277.702 14.6459 277.522 14.6696C277.086 14.7264 276.679 14.8187 276.3 14.9466C275.926 15.0697 275.623 15.2567 275.391 15.5076C275.164 15.7539 275.05 16.09 275.05 16.5162C275.05 17.0985 275.265 17.5389 275.696 17.8372C276.132 18.1307 276.684 18.2775 277.351 18.2775ZM292.882 11.0616L291.376 11.4878C291.282 11.2368 291.142 10.993 290.957 10.7562C290.777 10.5147 290.531 10.3159 290.219 10.1596C289.906 10.0034 289.506 9.92525 289.018 9.92525C288.351 9.92525 287.794 10.0791 287.349 10.3869C286.909 10.6899 286.689 11.0758 286.689 11.5446C286.689 11.9612 286.84 12.2903 287.143 12.5318C287.446 12.7733 287.92 12.9745 288.564 13.1355L290.183 13.5332C291.159 13.77 291.885 14.1322 292.364 14.6199C292.842 15.1028 293.081 15.7254 293.081 16.4878C293.081 17.1128 292.901 17.6715 292.541 18.1639C292.186 18.6563 291.689 19.0446 291.05 19.3287C290.41 19.6128 289.667 19.7548 288.82 19.7548C287.707 19.7548 286.786 19.5133 286.057 19.0304C285.328 18.5474 284.866 17.8419 284.672 16.9139L286.263 16.5162C286.414 17.1033 286.701 17.5436 287.122 17.8372C287.548 18.1307 288.105 18.2775 288.791 18.2775C289.572 18.2775 290.193 18.1118 290.652 17.7804C291.116 17.4442 291.348 17.0417 291.348 16.573C291.348 16.1942 291.215 15.877 290.95 15.6213C290.685 15.3609 290.278 15.1667 289.729 15.0389L287.91 14.6128C286.911 14.376 286.178 14.0091 285.709 13.5119C285.245 13.01 285.013 12.3826 285.013 11.6298C285.013 11.0143 285.186 10.4698 285.531 9.99628C285.882 9.52279 286.357 9.15111 286.959 8.88122C287.565 8.61133 288.251 8.47639 289.018 8.47639C290.098 8.47639 290.946 8.71313 291.561 9.18662C292.181 9.6601 292.622 10.2851 292.882 11.0616ZM296.826 19.6412C296.475 19.6412 296.175 19.5157 295.924 19.2647C295.673 19.0138 295.547 18.7131 295.547 18.3628C295.547 18.0124 295.673 17.7117 295.924 17.4608C296.175 17.2098 296.475 17.0843 296.826 17.0843C297.176 17.0843 297.477 17.2098 297.728 17.4608C297.979 17.7117 298.104 18.0124 298.104 18.3628C298.104 18.5948 298.045 18.8078 297.926 19.002C297.813 19.1961 297.659 19.3523 297.465 19.4707C297.275 19.5843 297.062 19.6412 296.826 19.6412ZM296.826 11.5446C296.475 11.5446 296.175 11.4191 295.924 11.1682C295.673 10.9172 295.547 10.6165 295.547 10.2662C295.547 9.91578 295.673 9.61512 295.924 9.36417C296.175 9.11323 296.475 8.98775 296.826 8.98775C297.176 8.98775 297.477 9.11323 297.728 9.36417C297.979 9.61512 298.104 9.91578 298.104 10.2662C298.104 10.4982 298.045 10.7112 297.926 10.9054C297.813 11.0995 297.659 11.2557 297.465 11.3741C297.275 11.4878 297.062 11.5446 296.826 11.5446ZM5.69456 41.4253V31.1412H8.55678V41.4253H5.69456ZM1.98007 37.7179V34.8485H12.2642V37.7179H1.98007ZM20.6324 43.7264C19.5718 43.7264 18.6296 43.5346 17.8057 43.1511C16.9818 42.7676 16.3308 42.2396 15.8526 41.5673C15.3791 40.895 15.1329 40.1232 15.1139 39.252H18.523C18.5514 39.787 18.7693 40.2179 19.1765 40.5446C19.5836 40.8665 20.069 41.0275 20.6324 41.0275C21.0728 41.0275 21.4634 40.9305 21.8043 40.7363C22.1452 40.5422 22.4127 40.27 22.6068 39.9196C22.801 39.5645 22.8957 39.1573 22.8909 38.698C22.8957 38.2292 22.7986 37.8197 22.5997 37.4693C22.4056 37.1189 22.1357 36.8467 21.7901 36.6525C21.4492 36.4537 21.0562 36.3542 20.6111 36.3542C20.1897 36.3495 19.7896 36.4418 19.4108 36.6312C19.0368 36.8206 18.7527 37.0787 18.5586 37.4054L15.4549 36.823L16.087 28.9821H25.4193V31.8159H18.9776L18.6438 35.2463H18.729C18.9705 34.8438 19.3587 34.5124 19.8938 34.252C20.4336 33.9868 21.0467 33.8542 21.7333 33.8542C22.6045 33.8542 23.381 34.0578 24.0628 34.465C24.7494 34.8675 25.2891 35.4262 25.6821 36.1412C26.0799 36.8561 26.2787 37.6753 26.2787 38.5985C26.2787 39.5976 26.042 40.483 25.5685 41.2548C25.0997 42.0266 24.4416 42.6326 23.5941 43.073C22.7513 43.5086 21.764 43.7264 20.6324 43.7264ZM28.0312 41.1128V38.3713L33.99 28.9821H36.4261V32.7037H35.0127L31.5255 38.2292V38.3429H40.1548V41.1128H28.0312ZM35.0554 43.5275V40.2747L35.1264 39.0744V28.9821H38.4147V43.5275H35.0554ZM51.7706 28.7832C52.566 28.7832 53.326 28.9134 54.0504 29.1738C54.7748 29.4295 55.4211 29.8391 55.9893 30.4025C56.5575 30.9612 57.0049 31.6975 57.3316 32.6113C57.6583 33.5252 57.8217 34.6402 57.8217 35.9565C57.8264 37.1686 57.6844 38.2553 57.3956 39.2164C57.1067 40.1729 56.6924 40.9873 56.1527 41.6596C55.6176 42.332 54.9737 42.8457 54.2208 43.2008C53.468 43.5512 52.6276 43.7264 51.6995 43.7264C50.6768 43.7264 49.7748 43.5299 48.9936 43.1369C48.2171 42.7392 47.5944 42.2041 47.1257 41.5318C46.6617 40.8594 46.3847 40.1066 46.2947 39.2733H49.7535C49.8624 39.7562 50.0921 40.1208 50.4424 40.367C50.7928 40.6085 51.2118 40.7292 51.6995 40.7292C52.5897 40.7292 53.2549 40.3433 53.6953 39.5716C54.1356 38.7998 54.3558 37.751 54.3558 36.4253H54.2706C54.067 36.8609 53.7781 37.2349 53.4041 37.5474C53.0348 37.8599 52.6063 38.099 52.1186 38.2647C51.6309 38.4305 51.1171 38.5133 50.5774 38.5133C49.7062 38.5133 48.9367 38.3145 48.2691 37.9167C47.6063 37.519 47.0854 36.9721 46.7066 36.2761C46.3326 35.5801 46.1432 34.7846 46.1385 33.8897C46.1337 32.886 46.3681 32.0005 46.8416 31.2335C47.3151 30.4617 47.9756 29.8604 48.8231 29.4295C49.6706 28.9939 50.6531 28.7785 51.7706 28.7832ZM51.7919 31.4821C51.3563 31.4821 50.968 31.5839 50.6271 31.7875C50.2909 31.9911 50.0258 32.2657 49.8316 32.6113C49.6375 32.957 49.5428 33.3452 49.5475 33.7761C49.5523 34.207 49.6493 34.5952 49.8387 34.9409C50.0329 35.2865 50.2956 35.5611 50.6271 35.7647C50.9633 35.9683 51.3468 36.0701 51.7777 36.0701C52.0996 36.0701 52.3979 36.011 52.6725 35.8926C52.9472 35.7742 53.1863 35.6109 53.3899 35.4025C53.5935 35.1895 53.7521 34.9432 53.8657 34.6639C53.9841 34.3845 54.0409 34.0862 54.0362 33.769C54.0314 33.3476 53.932 32.9641 53.7379 32.6184C53.5438 32.2728 53.2762 31.9982 52.9353 31.7946C52.5992 31.5862 52.218 31.4821 51.7919 31.4821ZM70.7745 28.9821V43.5275H67.2659V32.2633H67.1807L63.9279 34.252V31.2122L67.5145 28.9821H70.7745ZM80.7159 28.9821V43.5275H77.2073V32.2633H77.1221L73.8693 34.252V31.2122L77.4559 28.9821H80.7159ZM88.2283 43.5275V40.9991L93.5337 36.3542C93.9314 35.9944 94.27 35.6653 94.5493 35.367C94.8287 35.064 95.0417 34.761 95.1885 34.4579C95.3353 34.1502 95.4087 33.8164 95.4087 33.4565C95.4087 33.054 95.3211 32.7108 95.1459 32.4267C94.9707 32.1378 94.7292 31.9153 94.4215 31.7591C94.1137 31.6028 93.761 31.5247 93.3632 31.5247C92.9608 31.5247 92.608 31.6075 92.305 31.7733C92.002 31.9342 91.7652 32.1686 91.5948 32.4764C91.4291 32.7842 91.3462 33.1582 91.3462 33.5985H88.0152C88.0152 32.609 88.2378 31.7543 88.6828 31.0346C89.1279 30.3149 89.7529 29.761 90.5578 29.3727C91.3675 28.9797 92.3074 28.7832 93.3774 28.7832C94.4807 28.7832 95.4395 28.9679 96.2539 29.3372C97.0683 29.7065 97.698 30.2226 98.1431 30.8855C98.5929 31.5436 98.8178 32.3083 98.8178 33.1795C98.8178 33.7335 98.7065 34.2827 98.484 34.8272C98.2614 35.3717 97.8613 35.9731 97.2837 36.6312C96.7108 37.2894 95.8964 38.0777 94.8405 38.9963L93.1005 40.6014V40.6937H98.9953V43.5275H88.2283ZM100.982 43.5275V40.9991L106.288 36.3542C106.685 35.9944 107.024 35.6653 107.303 35.367C107.583 35.064 107.796 34.761 107.942 34.4579C108.089 34.1502 108.163 33.8164 108.163 33.4565C108.163 33.054 108.075 32.7108 107.9 32.4267C107.725 32.1378 107.483 31.9153 107.175 31.7591C106.868 31.6028 106.515 31.5247 106.117 31.5247C105.715 31.5247 105.362 31.6075 105.059 31.7733C104.756 31.9342 104.519 32.1686 104.349 32.4764C104.183 32.7842 104.1 33.1582 104.1 33.5985H100.769C100.769 32.609 100.992 31.7543 101.437 31.0346C101.882 30.3149 102.507 29.761 103.312 29.3727C104.121 28.9797 105.061 28.7832 106.131 28.7832C107.235 28.7832 108.193 28.9679 109.008 29.3372C109.822 29.7065 110.452 30.2226 110.897 30.8855C111.347 31.5436 111.572 32.3083 111.572 33.1795C111.572 33.7335 111.46 34.2827 111.238 34.8272C111.015 35.3717 110.615 35.9731 110.038 36.6312C109.465 37.2894 108.65 38.0777 107.594 38.9963L105.854 40.6014V40.6937H111.749V43.5275H100.982ZM119.418 43.7264C118.286 43.7264 117.275 43.5465 116.385 43.1866C115.5 42.822 114.804 42.3296 114.297 41.7093C113.795 41.0843 113.544 40.3789 113.544 39.5929C113.544 38.9915 113.689 38.4399 113.978 37.938C114.266 37.4361 114.657 37.0195 115.149 36.688C115.647 36.3519 116.201 36.1364 116.811 36.0417V35.9281C116.011 35.7813 115.355 35.4096 114.844 34.813C114.337 34.2164 114.084 33.5181 114.084 32.7179C114.084 31.9603 114.314 31.2856 114.773 30.6937C115.237 30.1019 115.869 29.6355 116.669 29.2946C117.474 28.9537 118.39 28.7832 119.418 28.7832C120.445 28.7832 121.359 28.9537 122.159 29.2946C122.964 29.6355 123.596 30.1019 124.056 30.6937C124.52 31.2856 124.752 31.9603 124.752 32.7179C124.752 33.5228 124.494 34.2235 123.978 34.8201C123.466 35.412 122.815 35.7813 122.024 35.9281V36.0417C122.631 36.1364 123.18 36.3519 123.672 36.688C124.169 37.0195 124.562 37.4361 124.851 37.938C125.145 38.4399 125.292 38.9915 125.292 39.5929C125.292 40.3789 125.038 41.0843 124.532 41.7093C124.025 42.3296 123.329 42.822 122.443 43.1866C121.563 43.5465 120.554 43.7264 119.418 43.7264ZM119.418 41.2335C119.849 41.2335 120.228 41.153 120.554 40.992C120.881 40.8263 121.137 40.5967 121.321 40.3031C121.511 40.0095 121.605 39.6781 121.605 39.3088C121.605 38.93 121.511 38.5938 121.321 38.3003C121.132 38.0067 120.872 37.7771 120.54 37.6113C120.213 37.4409 119.839 37.3557 119.418 37.3557C119.001 37.3557 118.627 37.4409 118.296 37.6113C117.964 37.7771 117.704 38.0067 117.515 38.3003C117.325 38.5938 117.23 38.93 117.23 39.3088C117.23 39.6781 117.323 40.0095 117.507 40.3031C117.697 40.5919 117.955 40.8192 118.282 40.9849C118.613 41.1506 118.992 41.2335 119.418 41.2335ZM119.418 34.877C119.787 34.877 120.114 34.8012 120.398 34.6497C120.687 34.4982 120.912 34.2875 121.073 34.0176C121.238 33.7477 121.321 33.4423 121.321 33.1014C121.321 32.7605 121.238 32.4598 121.073 32.1994C120.912 31.939 120.689 31.7354 120.405 31.5886C120.121 31.4371 119.792 31.3613 119.418 31.3613C119.049 31.3613 118.72 31.4371 118.431 31.5886C118.142 31.7354 117.917 31.939 117.756 32.1994C117.595 32.4598 117.515 32.7605 117.515 33.1014C117.515 33.4423 117.595 33.7477 117.756 34.0176C117.922 34.2827 118.149 34.4934 118.438 34.6497C118.727 34.8012 119.053 34.877 119.418 34.877ZM133.267 43.8826C131.998 43.8826 130.905 43.582 129.986 42.9807C129.068 42.3746 128.36 41.5057 127.863 40.3741C127.365 39.2378 127.119 37.8718 127.124 36.2761C127.129 34.6805 127.377 33.3263 127.87 32.2136C128.367 31.0962 129.072 30.2463 129.986 29.6639C130.905 29.0768 131.998 28.7832 133.267 28.7832C134.536 28.7832 135.63 29.0768 136.549 29.6639C137.472 30.2463 138.182 31.0962 138.679 32.2136C139.176 33.331 139.423 34.6852 139.418 36.2761C139.418 37.8765 139.169 39.2449 138.672 40.3812C138.175 41.5176 137.467 42.3864 136.549 42.9878C135.635 43.5843 134.541 43.8826 133.267 43.8826ZM133.267 41.0062C134.025 41.0062 134.638 40.6203 135.107 39.8485C135.576 39.072 135.808 37.8812 135.803 36.2761C135.803 35.225 135.696 34.3585 135.483 33.6767C135.27 32.9901 134.974 32.4788 134.595 32.1426C134.217 31.8064 133.774 31.6383 133.267 31.6383C132.515 31.6383 131.906 32.0195 131.442 32.7818C130.978 33.5394 130.744 34.7041 130.739 36.2761C130.734 37.3414 130.836 38.2245 131.044 38.9253C131.257 39.626 131.556 40.1492 131.939 40.4949C132.323 40.8358 132.765 41.0062 133.267 41.0062ZM148.441 34.9196V37.59H141.708V34.9196H148.441ZM156.696 43.7264C155.901 43.7264 155.138 43.5985 154.409 43.3429C153.68 43.0825 153.031 42.6705 152.463 42.1071C151.895 41.5389 151.447 40.7955 151.121 39.877C150.794 38.9537 150.633 37.8291 150.638 36.5034C150.642 35.3055 150.789 34.2307 151.078 33.2789C151.367 32.3225 151.779 31.5105 152.314 30.8429C152.854 30.1753 153.498 29.6663 154.246 29.3159C154.999 28.9608 155.839 28.7832 156.767 28.7832C157.785 28.7832 158.682 28.9821 159.459 29.3798C160.24 29.7728 160.865 30.3031 161.334 30.9707C161.803 31.6336 162.08 32.3722 162.165 33.1866H158.706C158.602 32.7273 158.372 32.3793 158.017 32.1426C157.667 31.9011 157.25 31.7804 156.767 31.7804C155.877 31.7804 155.212 32.1663 154.771 32.938C154.336 33.7098 154.113 34.742 154.104 36.0346H154.196C154.395 35.599 154.681 35.225 155.055 34.9125C155.429 34.6 155.858 34.3609 156.341 34.1951C156.829 34.0247 157.345 33.9395 157.889 33.9395C158.76 33.9395 159.53 34.1407 160.197 34.5432C160.865 34.9456 161.388 35.4972 161.767 36.198C162.146 36.894 162.333 37.6918 162.328 38.5914C162.333 39.6047 162.096 40.4996 161.618 41.2761C161.14 42.0479 160.477 42.6492 159.629 43.0801C158.786 43.511 157.809 43.7264 156.696 43.7264ZM156.675 41.0275C157.106 41.0275 157.491 40.9257 157.832 40.7221C158.173 40.5185 158.441 40.2415 158.635 39.8912C158.829 39.5408 158.924 39.1454 158.919 38.7051C158.924 38.26 158.829 37.8646 158.635 37.519C158.446 37.1734 158.18 36.8987 157.839 36.6951C157.503 36.4915 157.117 36.3897 156.682 36.3897C156.365 36.3897 156.069 36.4489 155.794 36.5673C155.519 36.6857 155.28 36.8514 155.077 37.0645C154.878 37.2728 154.722 37.519 154.608 37.8031C154.494 38.0825 154.435 38.3855 154.43 38.7122C154.435 39.1431 154.535 39.5337 154.729 39.8841C154.923 40.2344 155.188 40.5138 155.524 40.7221C155.86 40.9257 156.244 41.0275 156.675 41.0275ZM169.798 28.7832C170.593 28.7832 171.353 28.9134 172.078 29.1738C172.802 29.4295 173.448 29.8391 174.017 30.4025C174.585 30.9612 175.032 31.6975 175.359 32.6113C175.686 33.5252 175.849 34.6402 175.849 35.9565C175.854 37.1686 175.712 38.2553 175.423 39.2164C175.134 40.1729 174.72 40.9873 174.18 41.6596C173.645 42.332 173.001 42.8457 172.248 43.2008C171.495 43.5512 170.655 43.7264 169.727 43.7264C168.704 43.7264 167.802 43.5299 167.021 43.1369C166.244 42.7392 165.622 42.2041 165.153 41.5318C164.689 40.8594 164.412 40.1066 164.322 39.2733H167.781C167.89 39.7562 168.119 40.1208 168.47 40.367C168.82 40.6085 169.239 40.7292 169.727 40.7292C170.617 40.7292 171.282 40.3433 171.723 39.5716C172.163 38.7998 172.383 37.751 172.383 36.4253H172.298C172.094 36.8609 171.805 37.2349 171.431 37.5474C171.062 37.8599 170.634 38.099 170.146 38.2647C169.658 38.4305 169.144 38.5133 168.605 38.5133C167.734 38.5133 166.964 38.3145 166.296 37.9167C165.634 37.519 165.113 36.9721 164.734 36.2761C164.36 35.5801 164.171 34.7846 164.166 33.8897C164.161 32.886 164.395 32.0005 164.869 31.2335C165.342 30.4617 166.003 29.8604 166.85 29.4295C167.698 28.9939 168.68 28.7785 169.798 28.7832ZM169.819 31.4821C169.384 31.4821 168.995 31.5839 168.654 31.7875C168.318 31.9911 168.053 32.2657 167.859 32.6113C167.665 32.957 167.57 33.3452 167.575 33.7761C167.58 34.207 167.677 34.5952 167.866 34.9409C168.06 35.2865 168.323 35.5611 168.654 35.7647C168.991 35.9683 169.374 36.0701 169.805 36.0701C170.127 36.0701 170.425 36.011 170.7 35.8926C170.975 35.7742 171.214 35.6109 171.417 35.4025C171.621 35.1895 171.779 34.9432 171.893 34.6639C172.011 34.3845 172.068 34.0862 172.064 33.769C172.059 33.3476 171.959 32.9641 171.765 32.6184C171.571 32.2728 171.304 31.9982 170.963 31.7946C170.626 31.5862 170.245 31.4821 169.819 31.4821ZM183.461 43.7264C182.329 43.7264 181.318 43.5465 180.428 43.1866C179.543 42.822 178.847 42.3296 178.34 41.7093C177.838 41.0843 177.587 40.3789 177.587 39.5929C177.587 38.9915 177.732 38.4399 178.021 37.938C178.309 37.4361 178.7 37.0195 179.192 36.688C179.69 36.3519 180.244 36.1364 180.854 36.0417V35.9281C180.054 35.7813 179.398 35.4096 178.887 34.813C178.38 34.2164 178.127 33.5181 178.127 32.7179C178.127 31.9603 178.357 31.2856 178.816 30.6937C179.28 30.1019 179.912 29.6355 180.712 29.2946C181.517 28.9537 182.433 28.7832 183.461 28.7832C184.488 28.7832 185.402 28.9537 186.202 29.2946C187.007 29.6355 187.639 30.1019 188.099 30.6937C188.563 31.2856 188.795 31.9603 188.795 32.7179C188.795 33.5228 188.537 34.2235 188.021 34.8201C187.509 35.412 186.858 35.7813 186.067 35.9281V36.0417C186.673 36.1364 187.223 36.3519 187.715 36.688C188.212 37.0195 188.605 37.4361 188.894 37.938C189.188 38.4399 189.334 38.9915 189.334 39.5929C189.334 40.3789 189.081 41.0843 188.575 41.7093C188.068 42.3296 187.372 42.822 186.486 43.1866C185.606 43.5465 184.597 43.7264 183.461 43.7264ZM183.461 41.2335C183.892 41.2335 184.271 41.153 184.597 40.992C184.924 40.8263 185.18 40.5967 185.364 40.3031C185.554 40.0095 185.648 39.6781 185.648 39.3088C185.648 38.93 185.554 38.5938 185.364 38.3003C185.175 38.0067 184.914 37.7771 184.583 37.6113C184.256 37.4409 183.882 37.3557 183.461 37.3557C183.044 37.3557 182.67 37.4409 182.339 37.6113C182.007 37.7771 181.747 38.0067 181.557 38.3003C181.368 38.5938 181.273 38.93 181.273 39.3088C181.273 39.6781 181.366 40.0095 181.55 40.3031C181.74 40.5919 181.998 40.8192 182.325 40.9849C182.656 41.1506 183.035 41.2335 183.461 41.2335ZM183.461 34.877C183.83 34.877 184.157 34.8012 184.441 34.6497C184.73 34.4982 184.955 34.2875 185.116 34.0176C185.281 33.7477 185.364 33.4423 185.364 33.1014C185.364 32.7605 185.281 32.4598 185.116 32.1994C184.955 31.939 184.732 31.7354 184.448 31.5886C184.164 31.4371 183.835 31.3613 183.461 31.3613C183.092 31.3613 182.763 31.4371 182.474 31.5886C182.185 31.7354 181.96 31.939 181.799 32.1994C181.638 32.4598 181.557 32.7605 181.557 33.1014C181.557 33.4423 181.638 33.7477 181.799 34.0176C181.965 34.2827 182.192 34.4934 182.481 34.6497C182.77 34.8012 183.096 34.877 183.461 34.877ZM197.31 43.8826C196.041 43.8826 194.948 43.582 194.029 42.9807C193.111 42.3746 192.403 41.5057 191.905 40.3741C191.408 39.2378 191.162 37.8718 191.167 36.2761C191.172 34.6805 191.42 33.3263 191.913 32.2136C192.41 31.0962 193.115 30.2463 194.029 29.6639C194.948 29.0768 196.041 28.7832 197.31 28.7832C198.579 28.7832 199.673 29.0768 200.592 29.6639C201.515 30.2463 202.225 31.0962 202.722 32.2136C203.219 33.331 203.466 34.6852 203.461 36.2761C203.461 37.8765 203.212 39.2449 202.715 40.3812C202.218 41.5176 201.51 42.3864 200.592 42.9878C199.678 43.5843 198.584 43.8826 197.31 43.8826ZM197.31 41.0062C198.068 41.0062 198.681 40.6203 199.15 39.8485C199.619 39.072 199.851 37.8812 199.846 36.2761C199.846 35.225 199.739 34.3585 199.526 33.6767C199.313 32.9901 199.017 32.4788 198.638 32.1426C198.26 31.8064 197.817 31.6383 197.31 31.6383C196.557 31.6383 195.949 32.0195 195.485 32.7818C195.021 33.5394 194.787 34.7041 194.782 36.2761C194.777 37.3414 194.879 38.2245 195.087 38.9253C195.3 39.626 195.599 40.1492 195.982 40.4949C196.366 40.8358 196.808 41.0062 197.31 41.0062Z" fill="white"/>
</svg>
