<svg width="256" height="14" viewBox="0 0 256 14" fill="none" xmlns="http://www.w3.org/2000/svg">
<path d="M3.40869 7.39374C3.40869 6.96665 3.51286 6.57733 3.72119 6.22577C3.92952 5.87421 4.20947 5.59426 4.56104 5.38592C4.9126 5.17759 5.30192 5.07343 5.729 5.07343C6.07796 5.07343 6.39958 5.14504 6.69385 5.28827C6.98812 5.4315 7.23421 5.62811 7.43213 5.87811C7.63265 6.12551 7.76676 6.40806 7.83447 6.72577H7.10791C7.02979 6.44191 6.86312 6.21014 6.60791 6.03046C6.3527 5.85077 6.05973 5.76093 5.729 5.76093C5.42952 5.76093 5.15609 5.83514 4.90869 5.98358C4.6613 6.12941 4.46338 6.32603 4.31494 6.57343C4.16911 6.81822 4.09619 7.09165 4.09619 7.39374C4.09619 7.69322 4.16911 7.96665 4.31494 8.21405C4.46338 8.46145 4.6613 8.65936 4.90869 8.8078C5.15609 8.95363 5.42952 9.02655 5.729 9.02655C6.05973 9.02655 6.34359 8.93671 6.58057 8.75702C6.81755 8.57733 6.9764 8.34556 7.05713 8.06171H7.77979C7.71468 8.37941 7.58708 8.66327 7.39697 8.91327C7.20687 9.16066 6.96859 9.35598 6.68213 9.49921C6.39567 9.64244 6.07796 9.71405 5.729 9.71405C5.30192 9.71405 4.9126 9.60988 4.56104 9.40155C4.20947 9.19322 3.92952 8.91327 3.72119 8.56171C3.51286 8.21014 3.40869 7.82082 3.40869 7.39374ZM5.6665 11.5187C5.0988 11.5187 4.56494 11.412 4.06494 11.1984C3.56755 10.9849 3.12874 10.6893 2.74854 10.3117C2.37093 9.9315 2.07406 9.4927 1.85791 8.9953C1.64437 8.4979 1.5389 7.96405 1.5415 7.39374C1.54411 6.82343 1.65218 6.28957 1.86572 5.79217C2.08187 5.29478 2.37874 4.85728 2.75635 4.47968C3.13395 4.09947 3.57145 3.80259 4.06885 3.58905C4.56624 3.37551 5.0988 3.26874 5.6665 3.26874C6.23682 3.26874 6.77067 3.37551 7.26807 3.58905C7.76807 3.80259 8.20557 4.09947 8.58057 4.47968C8.95817 4.85728 9.25374 5.29478 9.46729 5.79217C9.68083 6.28957 9.7889 6.82343 9.7915 7.39374C9.79411 7.96405 9.68864 8.4979 9.4751 8.9953C9.26156 9.4927 8.96598 9.9315 8.58838 10.3117C8.21078 10.6893 7.77197 10.9849 7.27197 11.1984C6.77197 11.412 6.23682 11.5187 5.6665 11.5187ZM5.6665 10.8312C6.14307 10.8312 6.58968 10.7427 7.00635 10.5656C7.42301 10.3859 7.7876 10.1398 8.1001 9.82733C8.4152 9.51223 8.6613 9.14634 8.83838 8.72968C9.01807 8.31301 9.10661 7.869 9.104 7.39764C9.1014 6.92108 9.01025 6.47447 8.83057 6.0578C8.65348 5.64113 8.40739 5.27655 8.09229 4.96405C7.77979 4.64895 7.4165 4.40285 7.00244 4.22577C6.58838 4.04608 6.14307 3.95624 5.6665 3.95624C5.19255 3.95624 4.74854 4.04608 4.33447 4.22577C3.92041 4.40285 3.55583 4.64895 3.24072 4.96405C2.92822 5.27915 2.68213 5.64504 2.50244 6.06171C2.32275 6.47577 2.23161 6.92108 2.229 7.39764C2.2264 7.869 2.31364 8.31301 2.49072 8.72968C2.67041 9.14374 2.91781 9.50832 3.23291 9.82343C3.54801 10.1359 3.9139 10.382 4.33057 10.5617C4.74723 10.7414 5.19255 10.8312 5.6665 10.8312ZM14.6851 11.3937V10.8586L17.2983 7.92108C17.6395 7.53566 17.9142 7.20624 18.1226 6.9328C18.3309 6.65936 18.4819 6.40676 18.5757 6.17499C18.672 5.94322 18.7202 5.70233 18.7202 5.45233C18.7202 5.14764 18.6486 4.88202 18.5054 4.65546C18.3647 4.42629 18.1707 4.2479 17.9233 4.1203C17.6759 3.9927 17.3973 3.92889 17.0874 3.92889C16.7593 3.92889 16.4715 3.99921 16.2241 4.13983C15.9793 4.28046 15.7892 4.47316 15.6538 4.71796C15.5184 4.96275 15.4507 5.244 15.4507 5.56171H14.7515C14.7515 5.119 14.853 4.72707 15.0562 4.38593C15.2619 4.04218 15.5418 3.77264 15.896 3.57733C16.2528 3.38202 16.6564 3.28436 17.1069 3.28436C17.5522 3.28436 17.9481 3.38072 18.2944 3.57343C18.6408 3.76353 18.9129 4.02264 19.1108 4.35077C19.3088 4.67889 19.4077 5.04608 19.4077 5.45233C19.4077 5.7466 19.3556 6.03176 19.2515 6.3078C19.1499 6.58384 18.9741 6.89113 18.7241 7.22968C18.4741 7.56822 18.1278 7.98228 17.6851 8.47186L15.7007 10.6867V10.7375H19.6577V11.3937H14.6851ZM23.8833 11.5031C23.3208 11.5031 22.8403 11.3417 22.4419 11.0187C22.0461 10.6932 21.7414 10.2232 21.5278 9.60858C21.3169 8.994 21.2114 8.25572 21.2114 7.39374C21.2114 6.53436 21.3169 5.79869 21.5278 5.18671C21.7414 4.57212 22.0474 4.10207 22.4458 3.77655C22.8468 3.44842 23.326 3.28436 23.8833 3.28436C24.4406 3.28436 24.9185 3.44842 25.3169 3.77655C25.7179 4.10207 26.0239 4.57212 26.2349 5.18671C26.4484 5.79869 26.5552 6.53436 26.5552 7.39374C26.5552 8.25572 26.4484 8.994 26.2349 9.60858C26.0239 10.2232 25.7192 10.6932 25.3208 11.0187C24.925 11.3417 24.4458 11.5031 23.8833 11.5031ZM23.8833 10.8469C24.5005 10.8469 24.9823 10.5461 25.3286 9.94452C25.675 9.34035 25.8481 8.49009 25.8481 7.39374C25.8481 6.66457 25.7687 6.04218 25.6099 5.52655C25.4536 5.00832 25.2284 4.61249 24.9341 4.33905C24.6424 4.06561 24.2922 3.92889 23.8833 3.92889C23.2713 3.92889 22.7909 4.23358 22.4419 4.84296C22.0929 5.44973 21.9185 6.29999 21.9185 7.39374C21.9185 8.1229 21.9966 8.7453 22.1528 9.26093C22.3117 9.77655 22.5369 10.1698 22.8286 10.4406C23.1229 10.7114 23.4744 10.8469 23.8833 10.8469ZM28.145 11.3937V10.8586L30.7583 7.92108C31.0994 7.53566 31.3742 7.20624 31.5825 6.9328C31.7909 6.65936 31.9419 6.40676 32.0356 6.17499C32.132 5.94322 32.1802 5.70233 32.1802 5.45233C32.1802 5.14764 32.1086 4.88202 31.9653 4.65546C31.8247 4.42629 31.6307 4.2479 31.3833 4.1203C31.1359 3.9927 30.8573 3.92889 30.5474 3.92889C30.2192 3.92889 29.9315 3.99921 29.6841 4.13983C29.4393 4.28046 29.2492 4.47316 29.1138 4.71796C28.9784 4.96275 28.9106 5.244 28.9106 5.56171H28.2114C28.2114 5.119 28.313 4.72707 28.5161 4.38593C28.7218 4.04218 29.0018 3.77264 29.356 3.57733C29.7127 3.38202 30.1164 3.28436 30.5669 3.28436C31.0122 3.28436 31.408 3.38072 31.7544 3.57343C32.1007 3.76353 32.3729 4.02264 32.5708 4.35077C32.7687 4.67889 32.8677 5.04608 32.8677 5.45233C32.8677 5.7466 32.8156 6.03176 32.7114 6.3078C32.6099 6.58384 32.4341 6.89113 32.1841 7.22968C31.9341 7.56822 31.5877 7.98228 31.145 8.47186L29.1606 10.6867V10.7375H33.1177V11.3937H28.145ZM37.1987 11.5031C36.7534 11.5031 36.355 11.4133 36.0034 11.2336C35.6545 11.0513 35.3758 10.8013 35.1675 10.4836C34.9618 10.1659 34.8524 9.80259 34.8394 9.39374H35.5464C35.5698 9.81822 35.7365 10.1672 36.0464 10.4406C36.3563 10.7114 36.7404 10.8469 37.1987 10.8469C37.5555 10.8469 37.8732 10.7622 38.1519 10.593C38.4305 10.4211 38.6479 10.1867 38.8042 9.88983C38.9631 9.59035 39.0425 9.25311 39.0425 8.87811C39.0399 8.48749 38.9552 8.14374 38.7886 7.84686C38.6219 7.54738 38.3953 7.31301 38.1089 7.14374C37.825 6.97447 37.506 6.88983 37.1519 6.88983C36.8836 6.88723 36.6206 6.9315 36.3628 7.02264C36.105 7.11379 35.8901 7.23098 35.7183 7.37421L34.9878 7.28046L35.4683 3.39374H39.4214V4.04999H36.0815L35.7612 6.72577H35.8003C35.9774 6.57733 36.1922 6.45624 36.4448 6.36249C36.7 6.26874 36.9696 6.22186 37.2534 6.22186C37.7248 6.22186 38.1479 6.33514 38.5229 6.56171C38.9006 6.78827 39.1987 7.10077 39.4175 7.49921C39.6388 7.89504 39.7495 8.35077 39.7495 8.86639C39.7495 9.3716 39.6388 9.82343 39.4175 10.2219C39.1987 10.6177 38.8966 10.9302 38.5112 11.1594C38.1284 11.3885 37.6909 11.5031 37.1987 11.5031ZM44.6772 11.3937V3.39374H45.4077V7.06171H49.9468V3.39374H50.6772V11.3937H49.9468V7.71796H45.4077V11.3937H44.6772ZM52.7983 11.3937V3.39374H55.4976C56.0184 3.39374 56.452 3.48488 56.7983 3.66717C57.1473 3.84947 57.409 4.09816 57.5835 4.41327C57.758 4.72837 57.8452 5.08645 57.8452 5.48749C57.8452 5.82082 57.7892 6.10598 57.6772 6.34296C57.5653 6.57994 57.4129 6.77134 57.2202 6.91718C57.0275 7.06301 56.8127 7.16848 56.5757 7.23358V7.29608C56.8335 7.31431 57.0835 7.40546 57.3257 7.56952C57.5679 7.73098 57.7671 7.95754 57.9233 8.24921C58.0796 8.54087 58.1577 8.88983 58.1577 9.29608C58.1577 9.69973 58.0679 10.0604 57.8882 10.3781C57.7085 10.6932 57.4325 10.9419 57.0601 11.1242C56.6903 11.3039 56.2189 11.3937 55.646 11.3937H52.7983ZM53.5288 10.7375H55.646C56.2632 10.7375 56.7189 10.6008 57.0132 10.3273C57.3101 10.0539 57.4585 9.71014 57.4585 9.29608C57.4585 8.99139 57.3843 8.71535 57.2358 8.46796C57.09 8.21796 56.883 8.02004 56.6147 7.87421C56.3491 7.72837 56.0366 7.65546 55.6772 7.65546H53.5288V10.7375ZM53.5288 7.00702H55.564C55.8791 7.00702 56.1551 6.94191 56.3921 6.81171C56.6291 6.6815 56.814 6.50181 56.9468 6.27264C57.0796 6.04348 57.146 5.78176 57.146 5.48749C57.146 5.06301 57.008 4.71796 56.7319 4.45233C56.4559 4.1841 56.0444 4.04999 55.4976 4.04999H53.5288V7.00702ZM63.0259 11.3937H62.2603L65.1704 3.39374H65.9517L68.8618 11.3937H68.0962L65.5884 4.34296H65.5337L63.0259 11.3937ZM63.5767 8.32733H67.5454V8.98358H63.5767V8.32733ZM73.9009 9.10077V5.39374H74.5962V11.3937H73.9009V10.3976H73.8462C73.7056 10.7049 73.4829 10.9614 73.1782 11.1672C72.8735 11.3703 72.5011 11.4719 72.061 11.4719C71.6782 11.4719 71.3384 11.3885 71.0415 11.2219C70.7446 11.0526 70.5116 10.8052 70.3423 10.4797C70.173 10.1542 70.0884 9.75441 70.0884 9.28046V5.39374H70.7837V9.23749C70.7837 9.70624 70.9217 10.0838 71.1978 10.3703C71.4738 10.6542 71.828 10.7961 72.2603 10.7961C72.5311 10.7961 72.7915 10.731 73.0415 10.6008C73.2915 10.4706 73.4972 10.2805 73.6587 10.0305C73.8201 9.77785 73.9009 9.46796 73.9009 9.10077ZM78.8003 5.39374V5.99921H75.937V5.39374H78.8003ZM76.8315 3.95624H77.5308V9.82733C77.5308 10.0773 77.5737 10.2739 77.6597 10.4172C77.7456 10.5578 77.8576 10.6581 77.9956 10.718C78.1336 10.7752 78.2808 10.8039 78.437 10.8039C78.5282 10.8039 78.6063 10.7987 78.6714 10.7883C78.7365 10.7752 78.7938 10.7622 78.8433 10.7492L78.9917 11.3781C78.924 11.4042 78.8407 11.4276 78.7417 11.4484C78.6427 11.4719 78.5203 11.4836 78.3745 11.4836C78.1193 11.4836 77.8732 11.4276 77.6362 11.3156C77.4019 11.2036 77.2091 11.037 77.0581 10.8156C76.9071 10.5943 76.8315 10.3195 76.8315 9.99139V3.95624ZM82.647 11.5187C82.1287 11.5187 81.6704 11.3872 81.272 11.1242C80.8761 10.8612 80.5662 10.4979 80.3423 10.0344C80.1183 9.56822 80.0063 9.03046 80.0063 8.42108C80.0063 7.8065 80.1183 7.26613 80.3423 6.79999C80.5662 6.33124 80.8761 5.96665 81.272 5.70624C81.6704 5.44322 82.1287 5.31171 82.647 5.31171C83.1652 5.31171 83.6222 5.44322 84.0181 5.70624C84.4139 5.96926 84.7238 6.33384 84.9478 6.79999C85.1743 7.26613 85.2876 7.8065 85.2876 8.42108C85.2876 9.03046 85.1756 9.56822 84.9517 10.0344C84.7277 10.4979 84.4165 10.8612 84.0181 11.1242C83.6222 11.3872 83.1652 11.5187 82.647 11.5187ZM82.647 10.882C83.0636 10.882 83.4165 10.77 83.7056 10.5461C83.9946 10.3221 84.2134 10.0239 84.3618 9.65155C84.5129 9.27915 84.5884 8.869 84.5884 8.42108C84.5884 7.97316 84.5129 7.56171 84.3618 7.18671C84.2134 6.81171 83.9946 6.51093 83.7056 6.28436C83.4165 6.0578 83.0636 5.94452 82.647 5.94452C82.2329 5.94452 81.88 6.0578 81.5884 6.28436C81.2993 6.51093 81.0793 6.81171 80.9282 7.18671C80.7798 7.56171 80.7056 7.97316 80.7056 8.42108C80.7056 8.869 80.7798 9.27915 80.9282 9.65155C81.0793 10.0239 81.2993 10.3221 81.5884 10.5461C81.8774 10.77 82.2303 10.882 82.647 10.882ZM87.3687 11.4523C87.215 11.4523 87.0822 11.3976 86.9702 11.2883C86.8608 11.1763 86.8062 11.0435 86.8062 10.8898C86.8062 10.7336 86.8608 10.6008 86.9702 10.4914C87.0822 10.382 87.215 10.3273 87.3687 10.3273C87.5249 10.3273 87.6577 10.382 87.7671 10.4914C87.8765 10.6008 87.9312 10.7336 87.9312 10.8898C87.9312 10.9914 87.9051 11.0851 87.853 11.1711C87.8035 11.257 87.7358 11.326 87.6499 11.3781C87.5666 11.4276 87.4728 11.4523 87.3687 11.4523ZM92.522 4.04999V3.39374H98.3228V4.04999H95.7876V11.3937H95.0571V4.04999H92.522ZM101.285 11.5187C100.766 11.5187 100.308 11.3872 99.9097 11.1242C99.5138 10.8612 99.2039 10.4979 98.98 10.0344C98.756 9.56822 98.644 9.03046 98.644 8.42108C98.644 7.8065 98.756 7.26613 98.98 6.79999C99.2039 6.33124 99.5138 5.96665 99.9097 5.70624C100.308 5.44322 100.766 5.31171 101.285 5.31171C101.803 5.31171 102.26 5.44322 102.656 5.70624C103.052 5.96926 103.361 6.33384 103.585 6.79999C103.812 7.26613 103.925 7.8065 103.925 8.42108C103.925 9.03046 103.813 9.56822 103.589 10.0344C103.365 10.4979 103.054 10.8612 102.656 11.1242C102.26 11.3872 101.803 11.5187 101.285 11.5187ZM101.285 10.882C101.701 10.882 102.054 10.77 102.343 10.5461C102.632 10.3221 102.851 10.0239 103 9.65155C103.151 9.27915 103.226 8.869 103.226 8.42108C103.226 7.97316 103.151 7.56171 103 7.18671C102.851 6.81171 102.632 6.51093 102.343 6.28436C102.054 6.0578 101.701 5.94452 101.285 5.94452C100.871 5.94452 100.518 6.0578 100.226 6.28436C99.937 6.51093 99.717 6.81171 99.5659 7.18671C99.4175 7.56171 99.3433 7.97316 99.3433 8.42108C99.3433 8.869 99.4175 9.27915 99.5659 9.65155C99.717 10.0239 99.937 10.3221 100.226 10.5461C100.515 10.77 100.868 10.882 101.285 10.882ZM107.612 11.5187C107.12 11.5187 106.689 11.3885 106.319 11.1281C105.949 10.8677 105.66 10.5044 105.452 10.0383C105.246 9.57212 105.143 9.02915 105.143 8.40936C105.143 7.79218 105.246 7.25181 105.452 6.78827C105.66 6.32212 105.95 5.96014 106.323 5.70233C106.695 5.44191 107.129 5.31171 107.624 5.31171C107.988 5.31171 108.292 5.37681 108.534 5.50702C108.776 5.63462 108.97 5.79348 109.116 5.98358C109.262 6.17369 109.375 6.35858 109.456 6.53827H109.518V3.39374H110.217V11.3937H109.538V10.2805H109.456C109.375 10.4627 109.26 10.6502 109.112 10.843C108.963 11.0331 108.767 11.1932 108.522 11.3234C108.28 11.4536 107.976 11.5187 107.612 11.5187ZM107.694 10.882C108.082 10.882 108.413 10.7766 108.686 10.5656C108.959 10.3521 109.168 10.0591 109.311 9.68671C109.457 9.31171 109.53 8.88202 109.53 8.39764C109.53 7.91848 109.458 7.4953 109.315 7.12811C109.172 6.75832 108.963 6.46926 108.69 6.26093C108.417 6.04999 108.084 5.94452 107.694 5.94452C107.293 5.94452 106.954 6.05389 106.678 6.27264C106.405 6.48879 106.196 6.78176 106.053 7.15155C105.913 7.52134 105.842 7.93671 105.842 8.39764C105.842 8.86379 105.914 9.28436 106.057 9.65936C106.2 10.0344 106.409 10.3325 106.682 10.5539C106.958 10.7726 107.295 10.882 107.694 10.882ZM114.53 11.5187C114.012 11.5187 113.553 11.3872 113.155 11.1242C112.759 10.8612 112.449 10.4979 112.225 10.0344C112.001 9.56822 111.889 9.03046 111.889 8.42108C111.889 7.8065 112.001 7.26613 112.225 6.79999C112.449 6.33124 112.759 5.96665 113.155 5.70624C113.553 5.44322 114.012 5.31171 114.53 5.31171C115.048 5.31171 115.505 5.44322 115.901 5.70624C116.297 5.96926 116.607 6.33384 116.831 6.79999C117.057 7.26613 117.17 7.8065 117.17 8.42108C117.17 9.03046 117.058 9.56822 116.834 10.0344C116.611 10.4979 116.299 10.8612 115.901 11.1242C115.505 11.3872 115.048 11.5187 114.53 11.5187ZM114.53 10.882C114.946 10.882 115.299 10.77 115.588 10.5461C115.877 10.3221 116.096 10.0239 116.245 9.65155C116.396 9.27915 116.471 8.869 116.471 8.42108C116.471 7.97316 116.396 7.56171 116.245 7.18671C116.096 6.81171 115.877 6.51093 115.588 6.28436C115.299 6.0578 114.946 5.94452 114.53 5.94452C114.116 5.94452 113.763 6.0578 113.471 6.28436C113.182 6.51093 112.962 6.81171 112.811 7.18671C112.663 7.56171 112.588 7.97316 112.588 8.42108C112.588 8.869 112.663 9.27915 112.811 9.65155C112.962 10.0239 113.182 10.3221 113.471 10.5461C113.76 10.77 114.113 10.882 114.53 10.882ZM122.728 6.71014L122.091 6.88983C122.029 6.71014 121.94 6.54738 121.826 6.40155C121.711 6.25572 121.561 6.13983 121.376 6.05389C121.194 5.96796 120.968 5.92499 120.697 5.92499C120.291 5.92499 119.957 6.02134 119.697 6.21405C119.436 6.40676 119.306 6.65546 119.306 6.96014C119.306 7.21796 119.395 7.42759 119.572 7.58905C119.751 7.7479 120.028 7.87421 120.4 7.96796L121.306 8.19061C121.809 8.31301 122.185 8.50702 122.435 8.77264C122.688 9.03827 122.814 9.3716 122.814 9.77264C122.814 10.1112 122.72 10.412 122.533 10.675C122.345 10.938 122.083 11.145 121.748 11.2961C121.414 11.4445 121.028 11.5187 120.587 11.5187C120.001 11.5187 119.518 11.3872 119.138 11.1242C118.758 10.8586 118.514 10.4758 118.408 9.97577L119.076 9.81171C119.162 10.1685 119.33 10.438 119.58 10.6203C119.832 10.8026 120.164 10.8937 120.576 10.8937C121.037 10.8937 121.405 10.7909 121.681 10.5851C121.957 10.3768 122.095 10.1164 122.095 9.80389C122.095 9.56171 122.014 9.35858 121.853 9.19452C121.692 9.02785 121.447 8.90546 121.119 8.82733L120.138 8.59296C119.617 8.46796 119.232 8.27004 118.982 7.99921C118.732 7.72837 118.607 7.39244 118.607 6.99139C118.607 6.66066 118.697 6.3703 118.876 6.1203C119.056 5.8677 119.304 5.66978 119.619 5.52655C119.934 5.38332 120.293 5.31171 120.697 5.31171C121.246 5.31171 121.685 5.43671 122.013 5.68671C122.344 5.9341 122.582 6.27525 122.728 6.71014ZM128.125 3.39374V11.3937H127.43V3.39374H128.125ZM132.297 11.5187C131.779 11.5187 131.321 11.3872 130.922 11.1242C130.527 10.8612 130.217 10.4979 129.993 10.0344C129.769 9.56822 129.657 9.03046 129.657 8.42108C129.657 7.8065 129.769 7.26613 129.993 6.79999C130.217 6.33124 130.527 5.96665 130.922 5.70624C131.321 5.44322 131.779 5.31171 132.297 5.31171C132.816 5.31171 133.273 5.44322 133.668 5.70624C134.064 5.96926 134.374 6.33384 134.598 6.79999C134.825 7.26613 134.938 7.8065 134.938 8.42108C134.938 9.03046 134.826 9.56822 134.602 10.0344C134.378 10.4979 134.067 10.8612 133.668 11.1242C133.273 11.3872 132.816 11.5187 132.297 11.5187ZM132.297 10.882C132.714 10.882 133.067 10.77 133.356 10.5461C133.645 10.3221 133.864 10.0239 134.012 9.65155C134.163 9.27915 134.239 8.869 134.239 8.42108C134.239 7.97316 134.163 7.56171 134.012 7.18671C133.864 6.81171 133.645 6.51093 133.356 6.28436C133.067 6.0578 132.714 5.94452 132.297 5.94452C131.883 5.94452 131.53 6.0578 131.239 6.28436C130.95 6.51093 130.73 6.81171 130.579 7.18671C130.43 7.56171 130.356 7.97316 130.356 8.42108C130.356 8.869 130.43 9.27915 130.579 9.65155C130.73 10.0239 130.95 10.3221 131.239 10.5461C131.528 10.77 131.881 10.882 132.297 10.882ZM140.496 6.71014L139.859 6.88983C139.796 6.71014 139.708 6.54738 139.593 6.40155C139.479 6.25572 139.329 6.13983 139.144 6.05389C138.962 5.96796 138.735 5.92499 138.464 5.92499C138.058 5.92499 137.725 6.02134 137.464 6.21405C137.204 6.40676 137.074 6.65546 137.074 6.96014C137.074 7.21796 137.162 7.42759 137.339 7.58905C137.519 7.7479 137.795 7.87421 138.167 7.96796L139.074 8.19061C139.576 8.31301 139.953 8.50702 140.203 8.77264C140.455 9.03827 140.582 9.3716 140.582 9.77264C140.582 10.1112 140.488 10.412 140.3 10.675C140.113 10.938 139.851 11.145 139.515 11.2961C139.182 11.4445 138.795 11.5187 138.355 11.5187C137.769 11.5187 137.286 11.3872 136.906 11.1242C136.526 10.8586 136.282 10.4758 136.175 9.97577L136.843 9.81171C136.929 10.1685 137.097 10.438 137.347 10.6203C137.6 10.8026 137.932 10.8937 138.343 10.8937C138.804 10.8937 139.173 10.7909 139.449 10.5851C139.725 10.3768 139.863 10.1164 139.863 9.80389C139.863 9.56171 139.782 9.35858 139.621 9.19452C139.459 9.02785 139.214 8.90546 138.886 8.82733L137.906 8.59296C137.385 8.46796 137 8.27004 136.75 7.99921C136.5 7.72837 136.375 7.39244 136.375 6.99139C136.375 6.66066 136.464 6.3703 136.644 6.1203C136.824 5.8677 137.071 5.66978 137.386 5.52655C137.701 5.38332 138.061 5.31171 138.464 5.31171C139.014 5.31171 139.453 5.43671 139.781 5.68671C140.111 5.9341 140.35 6.27525 140.496 6.71014ZM147.358 11.5187C146.866 11.5187 146.435 11.3885 146.065 11.1281C145.695 10.8677 145.406 10.5044 145.198 10.0383C144.992 9.57212 144.889 9.02915 144.889 8.40936C144.889 7.79218 144.992 7.25181 145.198 6.78827C145.406 6.32212 145.696 5.96014 146.069 5.70233C146.441 5.44191 146.875 5.31171 147.37 5.31171C147.734 5.31171 148.038 5.37681 148.28 5.50702C148.522 5.63462 148.716 5.79348 148.862 5.98358C149.008 6.17369 149.121 6.35858 149.202 6.53827H149.264V3.39374H149.963V11.3937H149.284V10.2805H149.202C149.121 10.4627 149.006 10.6502 148.858 10.843C148.709 11.0331 148.513 11.1932 148.268 11.3234C148.026 11.4536 147.722 11.5187 147.358 11.5187ZM147.44 10.882C147.828 10.882 148.159 10.7766 148.432 10.5656C148.706 10.3521 148.914 10.0591 149.057 9.68671C149.203 9.31171 149.276 8.88202 149.276 8.39764C149.276 7.91848 149.204 7.4953 149.061 7.12811C148.918 6.75832 148.709 6.46926 148.436 6.26093C148.163 6.04999 147.831 5.94452 147.44 5.94452C147.039 5.94452 146.7 6.05389 146.424 6.27264C146.151 6.48879 145.943 6.78176 145.799 7.15155C145.659 7.52134 145.588 7.93671 145.588 8.39764C145.588 8.86379 145.66 9.28436 145.803 9.65936C145.946 10.0344 146.155 10.3325 146.428 10.5539C146.704 10.7726 147.042 10.882 147.44 10.882ZM154.37 11.5187C153.81 11.5187 153.325 11.3885 152.917 11.1281C152.508 10.8651 152.191 10.5018 151.967 10.0383C151.746 9.57212 151.635 9.03566 151.635 8.42889C151.635 7.82473 151.746 7.28827 151.967 6.81952C152.191 6.34816 152.5 5.97968 152.893 5.71405C153.289 5.44582 153.746 5.31171 154.264 5.31171C154.59 5.31171 154.903 5.3716 155.206 5.49139C155.508 5.60858 155.778 5.78957 156.018 6.03436C156.26 6.27655 156.452 6.58254 156.592 6.95233C156.733 7.31952 156.803 7.75441 156.803 8.25702V8.60077H152.116V7.98749H156.092C156.092 7.60207 156.014 7.25572 155.858 6.94843C155.704 6.63853 155.489 6.39374 155.213 6.21405C154.94 6.03436 154.624 5.94452 154.264 5.94452C153.884 5.94452 153.549 6.04608 153.26 6.24921C152.971 6.45233 152.745 6.72056 152.581 7.05389C152.419 7.38723 152.337 7.75181 152.334 8.14764V8.51483C152.334 8.99139 152.417 9.40806 152.581 9.76483C152.747 10.119 152.983 10.3937 153.288 10.5891C153.592 10.7844 153.953 10.882 154.37 10.882C154.653 10.882 154.902 10.8377 155.116 10.7492C155.332 10.6607 155.513 10.5422 155.659 10.3937C155.807 10.2427 155.919 10.0773 155.995 9.89764L156.655 10.1125C156.564 10.3651 156.414 10.5982 156.206 10.8117C156 11.0252 155.742 11.1971 155.432 11.3273C155.125 11.4549 154.771 11.5187 154.37 11.5187ZM158.335 11.3937V5.39374H159.011V6.31561H159.062C159.182 6.01353 159.39 5.77004 159.687 5.58514C159.986 5.39764 160.325 5.30389 160.703 5.30389C160.76 5.30389 160.824 5.3052 160.894 5.3078C160.964 5.3104 161.023 5.31301 161.07 5.31561V6.02264C161.039 6.01744 160.984 6.00962 160.906 5.99921C160.828 5.98879 160.743 5.98358 160.652 5.98358C160.339 5.98358 160.061 6.04999 159.816 6.1828C159.574 6.31301 159.382 6.494 159.242 6.72577C159.101 6.95754 159.031 7.22186 159.031 7.51874V11.3937H158.335ZM164.5 11.5187C163.94 11.5187 163.455 11.3885 163.046 11.1281C162.638 10.8651 162.321 10.5018 162.097 10.0383C161.876 9.57212 161.765 9.03566 161.765 8.42889C161.765 7.82473 161.876 7.28827 162.097 6.81952C162.321 6.34816 162.63 5.97968 163.023 5.71405C163.419 5.44582 163.876 5.31171 164.394 5.31171C164.72 5.31171 165.033 5.3716 165.335 5.49139C165.638 5.60858 165.908 5.78957 166.148 6.03436C166.39 6.27655 166.582 6.58254 166.722 6.95233C166.863 7.31952 166.933 7.75441 166.933 8.25702V8.60077H162.246V7.98749H166.222C166.222 7.60207 166.144 7.25572 165.988 6.94843C165.834 6.63853 165.619 6.39374 165.343 6.21405C165.07 6.03436 164.753 5.94452 164.394 5.94452C164.014 5.94452 163.679 6.04608 163.39 6.24921C163.101 6.45233 162.875 6.72056 162.71 7.05389C162.549 7.38723 162.467 7.75181 162.464 8.14764V8.51483C162.464 8.99139 162.546 9.40806 162.71 9.76483C162.877 10.119 163.113 10.3937 163.417 10.5891C163.722 10.7844 164.083 10.882 164.5 10.882C164.783 10.882 165.032 10.8377 165.246 10.7492C165.462 10.6607 165.643 10.5422 165.789 10.3937C165.937 10.2427 166.049 10.0773 166.125 9.89764L166.785 10.1125C166.694 10.3651 166.544 10.5982 166.335 10.8117C166.13 11.0252 165.872 11.1971 165.562 11.3273C165.255 11.4549 164.901 11.5187 164.5 11.5187ZM170.809 11.5187C170.273 11.5187 169.805 11.3846 169.407 11.1164C169.011 10.8482 168.704 10.481 168.485 10.0148C168.266 9.54869 168.157 9.01744 168.157 8.42108C168.157 7.81952 168.267 7.28436 168.489 6.81561C168.713 6.34686 169.023 5.97968 169.418 5.71405C169.814 5.44582 170.274 5.31171 170.797 5.31171C171.198 5.31171 171.562 5.38983 171.887 5.54608C172.213 5.69973 172.481 5.91718 172.692 6.19843C172.905 6.47707 173.04 6.80259 173.094 7.17499H172.391C172.318 6.83645 172.142 6.54738 171.864 6.3078C171.588 6.06561 171.236 5.94452 170.809 5.94452C170.426 5.94452 170.088 6.04869 169.793 6.25702C169.499 6.46275 169.269 6.75051 169.102 7.1203C168.938 7.48749 168.856 7.91327 168.856 8.39764C168.856 8.88462 168.937 9.31561 169.098 9.69061C169.26 10.063 169.486 10.3547 169.778 10.5656C170.072 10.7766 170.416 10.882 170.809 10.882C171.075 10.882 171.317 10.8325 171.536 10.7336C171.757 10.632 171.942 10.4888 172.09 10.3039C172.241 10.119 172.343 9.89895 172.395 9.64374H173.098C173.046 10.0057 172.917 10.3286 172.711 10.6125C172.508 10.8937 172.244 11.1151 171.918 11.2766C171.596 11.438 171.226 11.5187 170.809 11.5187ZM175.284 7.64374V11.3937H174.588V3.39374H175.284V6.33514H175.346C175.487 6.02525 175.704 5.77785 175.999 5.59296C176.295 5.40806 176.67 5.31561 177.124 5.31561C177.53 5.31561 177.887 5.39895 178.194 5.56561C178.501 5.73228 178.741 5.97837 178.913 6.30389C179.084 6.62941 179.17 7.03046 179.17 7.50702V11.3937H178.471V7.54999C178.471 7.0552 178.333 6.66587 178.057 6.38202C177.784 6.09556 177.414 5.95233 176.948 5.95233C176.627 5.95233 176.342 6.02004 176.092 6.15546C175.842 6.29087 175.644 6.48619 175.499 6.74139C175.355 6.994 175.284 7.29478 175.284 7.64374ZM183.333 11.5187C182.815 11.5187 182.357 11.3872 181.958 11.1242C181.563 10.8612 181.253 10.4979 181.029 10.0344C180.805 9.56822 180.693 9.03046 180.693 8.42108C180.693 7.8065 180.805 7.26613 181.029 6.79999C181.253 6.33124 181.563 5.96665 181.958 5.70624C182.357 5.44322 182.815 5.31171 183.333 5.31171C183.852 5.31171 184.309 5.44322 184.705 5.70624C185.1 5.96926 185.41 6.33384 185.634 6.79999C185.861 7.26613 185.974 7.8065 185.974 8.42108C185.974 9.03046 185.862 9.56822 185.638 10.0344C185.414 10.4979 185.103 10.8612 184.705 11.1242C184.309 11.3872 183.852 11.5187 183.333 11.5187ZM183.333 10.882C183.75 10.882 184.103 10.77 184.392 10.5461C184.681 10.3221 184.9 10.0239 185.048 9.65155C185.199 9.27915 185.275 8.869 185.275 8.42108C185.275 7.97316 185.199 7.56171 185.048 7.18671C184.9 6.81171 184.681 6.51093 184.392 6.28436C184.103 6.0578 183.75 5.94452 183.333 5.94452C182.919 5.94452 182.567 6.0578 182.275 6.28436C181.986 6.51093 181.766 6.81171 181.615 7.18671C181.466 7.56171 181.392 7.97316 181.392 8.42108C181.392 8.869 181.466 9.27915 181.615 9.65155C181.766 10.0239 181.986 10.3221 182.275 10.5461C182.564 10.77 182.917 10.882 183.333 10.882ZM191.532 6.71014L190.895 6.88983C190.833 6.71014 190.744 6.54738 190.629 6.40155C190.515 6.25572 190.365 6.13983 190.18 6.05389C189.998 5.96796 189.771 5.92499 189.5 5.92499C189.094 5.92499 188.761 6.02134 188.5 6.21405C188.24 6.40676 188.11 6.65546 188.11 6.96014C188.11 7.21796 188.198 7.42759 188.375 7.58905C188.555 7.7479 188.831 7.87421 189.204 7.96796L190.11 8.19061C190.612 8.31301 190.989 8.50702 191.239 8.77264C191.491 9.03827 191.618 9.3716 191.618 9.77264C191.618 10.1112 191.524 10.412 191.336 10.675C191.149 10.938 190.887 11.145 190.551 11.2961C190.218 11.4445 189.831 11.5187 189.391 11.5187C188.805 11.5187 188.322 11.3872 187.942 11.1242C187.562 10.8586 187.318 10.4758 187.211 9.97577L187.879 9.81171C187.965 10.1685 188.133 10.438 188.383 10.6203C188.636 10.8026 188.968 10.8937 189.379 10.8937C189.84 10.8937 190.209 10.7909 190.485 10.5851C190.761 10.3768 190.899 10.1164 190.899 9.80389C190.899 9.56171 190.818 9.35858 190.657 9.19452C190.495 9.02785 190.25 8.90546 189.922 8.82733L188.942 8.59296C188.421 8.46796 188.036 8.27004 187.786 7.99921C187.536 7.72837 187.411 7.39244 187.411 6.99139C187.411 6.66066 187.5 6.3703 187.68 6.1203C187.86 5.8677 188.107 5.66978 188.422 5.52655C188.737 5.38332 189.097 5.31171 189.5 5.31171C190.05 5.31171 190.489 5.43671 190.817 5.68671C191.148 5.9341 191.386 6.27525 191.532 6.71014ZM196.234 11.3937V5.39374H196.91V6.31561H196.96C197.08 6.01353 197.289 5.77004 197.585 5.58514C197.885 5.39764 198.223 5.30389 198.601 5.30389C198.658 5.30389 198.722 5.3052 198.792 5.3078C198.863 5.3104 198.921 5.31301 198.968 5.31561V6.02264C198.937 6.01744 198.882 6.00962 198.804 5.99921C198.726 5.98879 198.641 5.98358 198.55 5.98358C198.238 5.98358 197.959 6.04999 197.714 6.1828C197.472 6.31301 197.281 6.494 197.14 6.72577C197 6.95754 196.929 7.22186 196.929 7.51874V11.3937H196.234ZM202.398 11.5187C201.838 11.5187 201.354 11.3885 200.945 11.1281C200.536 10.8651 200.22 10.5018 199.996 10.0383C199.774 9.57212 199.664 9.03566 199.664 8.42889C199.664 7.82473 199.774 7.28827 199.996 6.81952C200.22 6.34816 200.528 5.97968 200.921 5.71405C201.317 5.44582 201.774 5.31171 202.292 5.31171C202.618 5.31171 202.932 5.3716 203.234 5.49139C203.536 5.60858 203.807 5.78957 204.046 6.03436C204.289 6.27655 204.48 6.58254 204.621 6.95233C204.761 7.31952 204.832 7.75441 204.832 8.25702V8.60077H200.144V7.98749H204.121C204.121 7.60207 204.042 7.25572 203.886 6.94843C203.733 6.63853 203.518 6.39374 203.242 6.21405C202.968 6.03436 202.652 5.94452 202.292 5.94452C201.912 5.94452 201.578 6.04608 201.289 6.24921C201 6.45233 200.773 6.72056 200.609 7.05389C200.447 7.38723 200.365 7.75181 200.363 8.14764V8.51483C200.363 8.99139 200.445 9.40806 200.609 9.76483C200.776 10.119 201.011 10.3937 201.316 10.5891C201.621 10.7844 201.981 10.882 202.398 10.882C202.682 10.882 202.931 10.8377 203.144 10.7492C203.36 10.6607 203.541 10.5422 203.687 10.3937C203.835 10.2427 203.947 10.0773 204.023 9.89764L204.683 10.1125C204.592 10.3651 204.442 10.5982 204.234 10.8117C204.028 11.0252 203.77 11.1971 203.46 11.3273C203.153 11.4549 202.799 11.5187 202.398 11.5187ZM210.395 6.71014L209.758 6.88983C209.696 6.71014 209.607 6.54738 209.493 6.40155C209.378 6.25572 209.228 6.13983 209.043 6.05389C208.861 5.96796 208.635 5.92499 208.364 5.92499C207.958 5.92499 207.624 6.02134 207.364 6.21405C207.103 6.40676 206.973 6.65546 206.973 6.96014C206.973 7.21796 207.062 7.42759 207.239 7.58905C207.418 7.7479 207.694 7.87421 208.067 7.96796L208.973 8.19061C209.476 8.31301 209.852 8.50702 210.102 8.77264C210.355 9.03827 210.481 9.3716 210.481 9.77264C210.481 10.1112 210.387 10.412 210.2 10.675C210.012 10.938 209.75 11.145 209.415 11.2961C209.081 11.4445 208.694 11.5187 208.254 11.5187C207.668 11.5187 207.185 11.3872 206.805 11.1242C206.425 10.8586 206.181 10.4758 206.075 9.97577L206.743 9.81171C206.829 10.1685 206.997 10.438 207.247 10.6203C207.499 10.8026 207.831 10.8937 208.243 10.8937C208.704 10.8937 209.072 10.7909 209.348 10.5851C209.624 10.3768 209.762 10.1164 209.762 9.80389C209.762 9.56171 209.681 9.35858 209.52 9.19452C209.359 9.02785 209.114 8.90546 208.786 8.82733L207.805 8.59296C207.284 8.46796 206.899 8.27004 206.649 7.99921C206.399 7.72837 206.274 7.39244 206.274 6.99139C206.274 6.66066 206.364 6.3703 206.543 6.1203C206.723 5.8677 206.971 5.66978 207.286 5.52655C207.601 5.38332 207.96 5.31171 208.364 5.31171C208.913 5.31171 209.352 5.43671 209.68 5.68671C210.011 5.9341 210.249 6.27525 210.395 6.71014ZM214.429 11.5187C213.869 11.5187 213.385 11.3885 212.976 11.1281C212.567 10.8651 212.251 10.5018 212.027 10.0383C211.806 9.57212 211.695 9.03566 211.695 8.42889C211.695 7.82473 211.806 7.28827 212.027 6.81952C212.251 6.34816 212.559 5.97968 212.953 5.71405C213.348 5.44582 213.806 5.31171 214.324 5.31171C214.649 5.31171 214.963 5.3716 215.265 5.49139C215.567 5.60858 215.838 5.78957 216.078 6.03436C216.32 6.27655 216.511 6.58254 216.652 6.95233C216.792 7.31952 216.863 7.75441 216.863 8.25702V8.60077H212.175V7.98749H216.152C216.152 7.60207 216.074 7.25572 215.917 6.94843C215.764 6.63853 215.549 6.39374 215.273 6.21405C215 6.03436 214.683 5.94452 214.324 5.94452C213.944 5.94452 213.609 6.04608 213.32 6.24921C213.031 6.45233 212.804 6.72056 212.64 7.05389C212.479 7.38723 212.397 7.75181 212.394 8.14764V8.51483C212.394 8.99139 212.476 9.40806 212.64 9.76483C212.807 10.119 213.042 10.3937 213.347 10.5891C213.652 10.7844 214.013 10.882 214.429 10.882C214.713 10.882 214.962 10.8377 215.175 10.7492C215.391 10.6607 215.572 10.5422 215.718 10.3937C215.867 10.2427 215.979 10.0773 216.054 9.89764L216.714 10.1125C216.623 10.3651 216.473 10.5982 216.265 10.8117C216.059 11.0252 215.802 11.1971 215.492 11.3273C215.184 11.4549 214.83 11.5187 214.429 11.5187ZM218.395 11.3937V5.39374H219.071V6.31561H219.122C219.241 6.01353 219.45 5.77004 219.747 5.58514C220.046 5.39764 220.385 5.30389 220.762 5.30389C220.819 5.30389 220.883 5.3052 220.954 5.3078C221.024 5.3104 221.083 5.31301 221.129 5.31561V6.02264C221.098 6.01744 221.043 6.00962 220.965 5.99921C220.887 5.98879 220.803 5.98358 220.711 5.98358C220.399 5.98358 220.12 6.04999 219.875 6.1828C219.633 6.31301 219.442 6.494 219.301 6.72577C219.161 6.95754 219.09 7.22186 219.09 7.51874V11.3937H218.395ZM227.143 5.39374L224.952 11.3937H224.209L222.018 5.39374H222.772L224.553 10.4758H224.608L226.389 5.39374H227.143ZM229.997 11.5305C229.635 11.5305 229.304 11.4601 229.004 11.3195C228.705 11.1763 228.467 10.9706 228.29 10.7023C228.112 10.4315 228.024 10.1034 228.024 9.71796C228.024 9.42108 228.08 9.17108 228.192 8.96796C228.304 8.76483 228.463 8.59816 228.668 8.46796C228.874 8.33775 229.118 8.23488 229.399 8.15936C229.68 8.08384 229.99 8.02525 230.329 7.98358C230.665 7.94191 230.948 7.90546 231.18 7.87421C231.415 7.84296 231.593 7.79348 231.715 7.72577C231.838 7.65806 231.899 7.54869 231.899 7.39764V7.25702C231.899 6.84816 231.777 6.52655 231.532 6.29217C231.29 6.0552 230.941 5.93671 230.485 5.93671C230.053 5.93671 229.7 6.03176 229.426 6.22186C229.155 6.41197 228.965 6.63592 228.856 6.89374L228.196 6.65546C228.331 6.32733 228.519 6.06561 228.758 5.8703C228.998 5.67238 229.266 5.53046 229.563 5.44452C229.86 5.35598 230.161 5.31171 230.465 5.31171C230.694 5.31171 230.933 5.34165 231.18 5.40155C231.43 5.46145 231.662 5.56561 231.875 5.71405C232.089 5.85988 232.262 6.06431 232.395 6.32733C232.528 6.58775 232.594 6.91848 232.594 7.31952V11.3937H231.899V10.4445H231.856C231.773 10.6216 231.649 10.7935 231.485 10.9601C231.321 11.1268 231.115 11.2635 230.868 11.3703C230.62 11.4771 230.33 11.5305 229.997 11.5305ZM230.09 10.8937C230.46 10.8937 230.78 10.8117 231.051 10.6476C231.322 10.4836 231.53 10.2661 231.676 9.9953C231.825 9.72186 231.899 9.42108 231.899 9.09296V8.22577C231.847 8.27525 231.76 8.31952 231.637 8.35858C231.517 8.39764 231.378 8.4328 231.219 8.46405C231.063 8.4927 230.907 8.51744 230.75 8.53827C230.594 8.5591 230.454 8.57733 230.329 8.59296C229.99 8.63462 229.701 8.69973 229.461 8.78827C229.222 8.87681 229.038 8.99921 228.911 9.15546C228.783 9.3091 228.719 9.50702 228.719 9.74921C228.719 10.1138 228.849 10.3963 229.11 10.5969C229.37 10.7948 229.697 10.8937 230.09 10.8937ZM236.604 11.5187C236.112 11.5187 235.681 11.3885 235.311 11.1281C234.941 10.8677 234.652 10.5044 234.444 10.0383C234.238 9.57212 234.135 9.02915 234.135 8.40936C234.135 7.79218 234.238 7.25181 234.444 6.78827C234.652 6.32212 234.943 5.96014 235.315 5.70233C235.687 5.44191 236.121 5.31171 236.616 5.31171C236.98 5.31171 237.284 5.37681 237.526 5.50702C237.768 5.63462 237.962 5.79348 238.108 5.98358C238.254 6.17369 238.367 6.35858 238.448 6.53827H238.51V3.39374H239.209V11.3937H238.53V10.2805H238.448C238.367 10.4627 238.252 10.6502 238.104 10.843C237.956 11.0331 237.759 11.1932 237.514 11.3234C237.272 11.4536 236.969 11.5187 236.604 11.5187ZM236.686 10.882C237.074 10.882 237.405 10.7766 237.678 10.5656C237.952 10.3521 238.16 10.0591 238.303 9.68671C238.449 9.31171 238.522 8.88202 238.522 8.39764C238.522 7.91848 238.45 7.4953 238.307 7.12811C238.164 6.75832 237.956 6.46926 237.682 6.26093C237.409 6.04999 237.077 5.94452 236.686 5.94452C236.285 5.94452 235.946 6.05389 235.67 6.27264C235.397 6.48879 235.189 6.78176 235.045 7.15155C234.905 7.52134 234.834 7.93671 234.834 8.39764C234.834 8.86379 234.906 9.28436 235.049 9.65936C235.193 10.0344 235.401 10.3325 235.674 10.5539C235.95 10.7726 236.288 10.882 236.686 10.882ZM243.522 11.5187C243.004 11.5187 242.545 11.3872 242.147 11.1242C241.751 10.8612 241.441 10.4979 241.217 10.0344C240.993 9.56822 240.881 9.03046 240.881 8.42108C240.881 7.8065 240.993 7.26613 241.217 6.79999C241.441 6.33124 241.751 5.96665 242.147 5.70624C242.545 5.44322 243.004 5.31171 243.522 5.31171C244.04 5.31171 244.497 5.44322 244.893 5.70624C245.289 5.96926 245.599 6.33384 245.823 6.79999C246.049 7.26613 246.163 7.8065 246.163 8.42108C246.163 9.03046 246.051 9.56822 245.827 10.0344C245.603 10.4979 245.292 10.8612 244.893 11.1242C244.497 11.3872 244.04 11.5187 243.522 11.5187ZM243.522 10.882C243.939 10.882 244.292 10.77 244.581 10.5461C244.87 10.3221 245.088 10.0239 245.237 9.65155C245.388 9.27915 245.463 8.869 245.463 8.42108C245.463 7.97316 245.388 7.56171 245.237 7.18671C245.088 6.81171 244.87 6.51093 244.581 6.28436C244.292 6.0578 243.939 5.94452 243.522 5.94452C243.108 5.94452 242.755 6.0578 242.463 6.28436C242.174 6.51093 241.954 6.81171 241.803 7.18671C241.655 7.56171 241.581 7.97316 241.581 8.42108C241.581 8.869 241.655 9.27915 241.803 9.65155C241.954 10.0239 242.174 10.3221 242.463 10.5461C242.752 10.77 243.105 10.882 243.522 10.882ZM251.72 6.71014L251.083 6.88983C251.021 6.71014 250.932 6.54738 250.818 6.40155C250.703 6.25572 250.554 6.13983 250.369 6.05389C250.186 5.96796 249.96 5.92499 249.689 5.92499C249.283 5.92499 248.949 6.02134 248.689 6.21405C248.429 6.40676 248.298 6.65546 248.298 6.96014C248.298 7.21796 248.387 7.42759 248.564 7.58905C248.744 7.7479 249.02 7.87421 249.392 7.96796L250.298 8.19061C250.801 8.31301 251.177 8.50702 251.427 8.77264C251.68 9.03827 251.806 9.3716 251.806 9.77264C251.806 10.1112 251.712 10.412 251.525 10.675C251.337 10.938 251.076 11.145 250.74 11.2961C250.406 11.4445 250.02 11.5187 249.58 11.5187C248.994 11.5187 248.511 11.3872 248.13 11.1242C247.75 10.8586 247.507 10.4758 247.4 9.97577L248.068 9.81171C248.154 10.1685 248.322 10.438 248.572 10.6203C248.824 10.8026 249.156 10.8937 249.568 10.8937C250.029 10.8937 250.397 10.7909 250.673 10.5851C250.949 10.3768 251.087 10.1164 251.087 9.80389C251.087 9.56171 251.007 9.35858 250.845 9.19452C250.684 9.02785 250.439 8.90546 250.111 8.82733L249.13 8.59296C248.61 8.46796 248.224 8.27004 247.974 7.99921C247.724 7.72837 247.599 7.39244 247.599 6.99139C247.599 6.66066 247.689 6.3703 247.869 6.1203C248.048 5.8677 248.296 5.66978 248.611 5.52655C248.926 5.38332 249.285 5.31171 249.689 5.31171C250.238 5.31171 250.677 5.43671 251.005 5.68671C251.336 5.9341 251.574 6.27525 251.72 6.71014ZM253.883 11.4523C253.73 11.4523 253.597 11.3976 253.485 11.2883C253.375 11.1763 253.321 11.0435 253.321 10.8898C253.321 10.7336 253.375 10.6008 253.485 10.4914C253.597 10.382 253.73 10.3273 253.883 10.3273C254.04 10.3273 254.172 10.382 254.282 10.4914C254.391 10.6008 254.446 10.7336 254.446 10.8898C254.446 10.9914 254.42 11.0851 254.368 11.1711C254.318 11.257 254.25 11.326 254.165 11.3781C254.081 11.4276 253.987 11.4523 253.883 11.4523Z" fill="white"/>
</svg>
